<svg width="21.671875" height="19.500488" viewBox="0 0 21.6719 19.5005" fill="none" xmlns="http://www.w3.org/2000/svg" xmlns:xlink="http://www.w3.org/1999/xlink">
	<desc>
			Created with Pixso.
	</desc>
	<defs/>
	<path id="path" d="M21.35 8.7C21.25 8.77 21.13 8.83 21 8.87C20.86 8.91 20.73 8.93 20.58 8.93C20.44 8.93 20.3 8.91 20.17 8.87C20.03 8.83 19.92 8.77 19.82 8.7L11.91 2.77L11.91 18.68C11.91 18.79 11.89 18.89 11.83 18.99C11.78 19.09 11.7 19.18 11.6 19.26C11.5 19.33 11.38 19.39 11.25 19.43C11.11 19.48 10.97 19.5 10.83 19.5C10.69 19.5 10.55 19.48 10.42 19.43C10.28 19.39 10.17 19.33 10.06 19.26C9.96 19.18 9.88 19.09 9.83 18.99C9.77 18.89 9.75 18.79 9.75 18.68L9.75 2.77L1.85 8.7C1.74 8.77 1.63 8.83 1.49 8.87C1.36 8.91 1.22 8.93 1.08 8.93C0.94 8.93 0.8 8.91 0.66 8.87C0.53 8.83 0.41 8.77 0.31 8.7C0.21 8.62 0.13 8.53 0.08 8.43C0.02 8.33 0 8.23 0 8.12C0 8.01 0.02 7.91 0.08 7.81C0.13 7.71 0.21 7.62 0.31 7.55L10.06 0.23C10.17 0.16 10.28 0.1 10.42 0.06C10.55 0.02 10.69 0 10.83 0C10.97 0 11.11 0.02 11.25 0.06C11.38 0.1 11.5 0.16 11.6 0.23L21.35 7.55C21.45 7.62 21.53 7.71 21.58 7.81C21.64 7.91 21.67 8.01 21.67 8.12C21.67 8.23 21.64 8.33 21.58 8.43C21.53 8.53 21.45 8.62 21.35 8.7Z" fill="#4CA054" fill-opacity="1.000000" fill-rule="nonzero"/>
</svg>
