<svg width="51.000000" height="51.000000" viewBox="0 0 51 51" fill="none" xmlns="http://www.w3.org/2000/svg" xmlns:xlink="http://www.w3.org/1999/xlink">
	<desc>
			Created with Pixso.
	</desc>
	<defs>
		<clipPath id="clip2_164">
			<rect id="ArrowLeft" width="51.000000" height="51.000000" fill="white" fill-opacity="0"/>
		</clipPath>
	</defs>
	<g clip-path="url(#clip2_164)">
		<path id="path" d="M44.62 25.5C44.62 25.71 44.58 25.91 44.5 26.11C44.42 26.3 44.3 26.47 44.15 26.62C44 26.77 43.83 26.89 43.64 26.97C43.44 27.05 43.24 27.09 43.03 27.09L11.81 27.09L23.43 38.71C23.58 38.86 23.7 39.03 23.78 39.23C23.86 39.42 23.9 39.63 23.9 39.84C23.9 40.05 23.86 40.25 23.78 40.45C23.7 40.64 23.58 40.82 23.43 40.97C23.28 41.12 23.11 41.23 22.92 41.31C22.72 41.39 22.52 41.43 22.31 41.43C22.09 41.43 21.89 41.39 21.7 41.31C21.5 41.23 21.33 41.12 21.18 40.97L6.83 26.62C6.69 26.47 6.57 26.3 6.49 26.11C6.41 25.91 6.37 25.71 6.37 25.5C6.37 25.28 6.41 25.08 6.49 24.88C6.57 24.69 6.69 24.52 6.83 24.37L21.18 10.02C21.33 9.87 21.5 9.76 21.7 9.68C21.89 9.6 22.09 9.56 22.31 9.56C22.52 9.56 22.72 9.6 22.92 9.68C23.11 9.76 23.28 9.87 23.43 10.02C23.58 10.17 23.7 10.35 23.78 10.54C23.86 10.74 23.9 10.94 23.9 11.15C23.9 11.36 23.86 11.57 23.78 11.76C23.7 11.96 23.58 12.13 23.43 12.28L11.81 23.9L43.03 23.9C43.24 23.9 43.44 23.94 43.64 24.02C43.83 24.1 44 24.22 44.15 24.37C44.3 24.52 44.42 24.69 44.5 24.89C44.58 25.08 44.62 25.28 44.62 25.5Z" fill="#000000" fill-opacity="1.000000" fill-rule="nonzero"/>
	</g>
</svg>
