<svg width="19.500000" height="16.500000" viewBox="0 0 19.5 16.5" fill="none" xmlns="http://www.w3.org/2000/svg" xmlns:xlink="http://www.w3.org/1999/xlink">
	<desc>
			Created with Pixso.
	</desc>
	<defs/>
	<path id="path" d="M18 0L1.5 0C1.3 0 1.1 0.03 0.92 0.11C0.74 0.19 0.58 0.29 0.43 0.43C0.29 0.58 0.18 0.74 0.11 0.92C0.03 1.1 0 1.3 0 1.5L0 15C0 15.19 0.03 15.39 0.11 15.57C0.18 15.75 0.29 15.91 0.43 16.06C0.58 16.2 0.74 16.3 0.92 16.38C1.1 16.46 1.3 16.5 1.5 16.5L18 16.5C18.19 16.5 18.39 16.46 18.57 16.38C18.75 16.3 18.91 16.2 19.06 16.06C19.2 15.91 19.31 15.75 19.38 15.57C19.46 15.39 19.5 15.19 19.5 15L19.5 1.5C19.5 1.3 19.46 1.1 19.38 0.92C19.31 0.74 19.2 0.58 19.06 0.43C18.91 0.29 18.75 0.19 18.57 0.11C18.39 0.03 18.19 0 18 0ZM18 15L1.5 15L1.5 1.5L18 1.5L18 15ZM14.25 4.5C14.25 4.79 14.22 5.08 14.16 5.37C14.1 5.66 14.02 5.94 13.9 6.22C13.79 6.49 13.65 6.75 13.49 7C13.32 7.24 13.14 7.47 12.93 7.68C12.72 7.89 12.49 8.07 12.25 8.24C12 8.4 11.74 8.54 11.47 8.65C11.19 8.77 10.91 8.85 10.62 8.91C10.33 8.97 10.04 9 9.75 9C9.45 9 9.16 8.97 8.87 8.91C8.58 8.85 8.3 8.77 8.02 8.65C7.75 8.54 7.49 8.4 7.25 8.24C7 8.07 6.77 7.89 6.56 7.68C6.35 7.47 6.17 7.24 6 7C5.84 6.75 5.7 6.49 5.59 6.22C5.47 5.94 5.39 5.66 5.33 5.37C5.27 5.08 5.25 4.79 5.25 4.5C5.25 4.4 5.26 4.3 5.3 4.21C5.34 4.12 5.39 4.04 5.46 3.96C5.53 3.89 5.62 3.84 5.71 3.8C5.8 3.76 5.9 3.75 6 3.75C6.09 3.75 6.19 3.76 6.28 3.8C6.37 3.84 6.46 3.89 6.53 3.96C6.6 4.04 6.65 4.12 6.69 4.21C6.73 4.3 6.75 4.4 6.75 4.5C6.75 4.69 6.76 4.89 6.8 5.08C6.84 5.27 6.9 5.46 6.97 5.64C7.05 5.83 7.14 6 7.25 6.16C7.36 6.33 7.49 6.48 7.62 6.62C7.76 6.76 7.91 6.88 8.08 6.99C8.24 7.1 8.41 7.19 8.6 7.27C8.78 7.34 8.97 7.4 9.16 7.44C9.35 7.48 9.55 7.5 9.75 7.5C9.94 7.5 10.14 7.48 10.33 7.44C10.52 7.4 10.71 7.34 10.89 7.27C11.08 7.19 11.25 7.1 11.41 6.99C11.58 6.88 11.73 6.76 11.87 6.62C12 6.48 12.13 6.33 12.24 6.16C12.35 6 12.44 5.83 12.52 5.64C12.59 5.46 12.65 5.27 12.69 5.08C12.73 4.89 12.75 4.69 12.75 4.5C12.75 4.4 12.76 4.3 12.8 4.21C12.84 4.12 12.89 4.04 12.96 3.96C13.03 3.89 13.12 3.84 13.21 3.8C13.3 3.76 13.4 3.75 13.5 3.75C13.59 3.75 13.69 3.76 13.78 3.8C13.87 3.84 13.96 3.89 14.03 3.96C14.1 4.04 14.15 4.12 14.19 4.21C14.23 4.3 14.25 4.4 14.25 4.5Z" fill="#000000" fill-opacity="1.000000" fill-rule="nonzero"/>
</svg>
