<svg width="16.500000" height="19.500000" viewBox="0 0 16.5 19.5" fill="none" xmlns="http://www.w3.org/2000/svg" xmlns:xlink="http://www.w3.org/1999/xlink">
	<desc>
			Created with Pixso.
	</desc>
	<defs/>
	<path id="path" d="M15.75 0L3 0C2.8 0 2.6 0.01 2.41 0.05C2.22 0.09 2.03 0.15 1.85 0.22C1.66 0.3 1.49 0.39 1.33 0.5C1.16 0.61 1.01 0.73 0.87 0.87C0.74 1.01 0.61 1.16 0.5 1.33C0.39 1.49 0.3 1.66 0.22 1.85C0.15 2.03 0.09 2.22 0.05 2.41C0.01 2.6 0 2.8 0 3L0 18.75C0 18.84 0.01 18.94 0.05 19.03C0.09 19.12 0.14 19.2 0.21 19.28C0.28 19.35 0.37 19.4 0.46 19.44C0.55 19.48 0.65 19.5 0.75 19.5L14.25 19.5C14.34 19.5 14.44 19.48 14.53 19.44C14.62 19.4 14.71 19.35 14.78 19.28C14.85 19.2 14.9 19.12 14.94 19.03C14.98 18.94 15 18.84 15 18.75C15 18.65 14.98 18.55 14.94 18.46C14.9 18.37 14.85 18.29 14.78 18.21C14.71 18.14 14.62 18.09 14.53 18.05C14.44 18.01 14.34 18 14.25 18L1.5 18C1.5 17.8 1.53 17.6 1.61 17.42C1.68 17.24 1.79 17.08 1.93 16.93C2.08 16.79 2.24 16.69 2.42 16.61C2.6 16.53 2.8 16.5 3 16.5L15.75 16.5C15.84 16.5 15.94 16.48 16.03 16.44C16.12 16.4 16.21 16.35 16.28 16.28C16.35 16.2 16.4 16.12 16.44 16.03C16.48 15.94 16.5 15.84 16.5 15.75L16.5 0.75C16.5 0.65 16.48 0.55 16.44 0.46C16.4 0.37 16.35 0.29 16.28 0.21C16.21 0.14 16.12 0.09 16.03 0.05C15.94 0.01 15.84 0 15.75 0ZM15 15L3 15C2.46 14.99 1.96 15.13 1.5 15.4L1.5 3C1.5 2.8 1.53 2.6 1.61 2.42C1.68 2.24 1.79 2.08 1.93 1.93C2.08 1.79 2.24 1.69 2.42 1.61C2.6 1.53 2.8 1.5 3 1.5L15 1.5L15 15Z" fill="#000000" fill-opacity="1.000000" fill-rule="nonzero"/>
</svg>
