<svg width="18.000000" height="19.500000" viewBox="0 0 18 19.5" fill="none" xmlns="http://www.w3.org/2000/svg" xmlns:xlink="http://www.w3.org/1999/xlink">
	<desc>
			Created with Pixso.
	</desc>
	<defs/>
	<path id="path" d="M16.5 1.5L14.25 1.5L14.25 0.75C14.25 0.65 14.23 0.55 14.19 0.46C14.15 0.37 14.1 0.29 14.03 0.21C13.96 0.14 13.87 0.09 13.78 0.05C13.69 0.01 13.59 0 13.5 0C13.4 0 13.3 0.01 13.21 0.05C13.12 0.09 13.03 0.14 12.96 0.21C12.89 0.29 12.84 0.37 12.8 0.46C12.76 0.55 12.75 0.65 12.75 0.75L12.75 1.5L5.25 1.5L5.25 0.75C5.25 0.65 5.23 0.55 5.19 0.46C5.15 0.37 5.1 0.29 5.03 0.21C4.96 0.14 4.87 0.09 4.78 0.05C4.69 0.01 4.59 0 4.5 0C4.4 0 4.3 0.01 4.21 0.05C4.12 0.09 4.03 0.14 3.96 0.21C3.89 0.29 3.84 0.37 3.8 0.46C3.76 0.55 3.75 0.65 3.75 0.75L3.75 1.5L1.5 1.5C1.3 1.5 1.1 1.53 0.92 1.61C0.74 1.69 0.58 1.79 0.43 1.93C0.29 2.08 0.18 2.24 0.11 2.42C0.03 2.6 0 2.8 0 3L0 18C0 18.19 0.03 18.39 0.11 18.57C0.18 18.75 0.29 18.91 0.43 19.06C0.58 19.2 0.74 19.3 0.92 19.38C1.1 19.46 1.3 19.5 1.5 19.5L16.5 19.5C16.69 19.5 16.89 19.46 17.07 19.38C17.25 19.3 17.41 19.2 17.56 19.06C17.7 18.91 17.81 18.75 17.88 18.57C17.96 18.39 18 18.19 18 18L18 3C18 2.8 17.96 2.6 17.88 2.42C17.81 2.24 17.7 2.08 17.56 1.93C17.41 1.79 17.25 1.69 17.07 1.61C16.89 1.53 16.69 1.5 16.5 1.5ZM3.75 3L3.75 3.75C3.75 3.84 3.76 3.94 3.8 4.03C3.84 4.12 3.89 4.2 3.96 4.28C4.03 4.35 4.12 4.4 4.21 4.44C4.3 4.48 4.4 4.5 4.5 4.5C4.59 4.5 4.69 4.48 4.78 4.44C4.87 4.4 4.96 4.35 5.03 4.28C5.1 4.2 5.15 4.12 5.19 4.03C5.23 3.94 5.25 3.84 5.25 3.75L5.25 3L12.75 3L12.75 3.75C12.75 3.84 12.76 3.94 12.8 4.03C12.84 4.12 12.89 4.2 12.96 4.28C13.03 4.35 13.12 4.4 13.21 4.44C13.3 4.48 13.4 4.5 13.5 4.5C13.59 4.5 13.69 4.48 13.78 4.44C13.87 4.4 13.96 4.35 14.03 4.28C14.1 4.2 14.15 4.12 14.19 4.03C14.23 3.94 14.25 3.84 14.25 3.75L14.25 3L16.5 3L16.5 6L1.5 6L1.5 3L3.75 3ZM16.5 18L1.5 18L1.5 7.5L16.5 7.5L16.5 18Z" fill="#000000" fill-opacity="1.000000" fill-rule="nonzero"/>
</svg>
