<svg width="21.000000" height="19.489258" viewBox="0 0 21 19.4893" fill="none" xmlns="http://www.w3.org/2000/svg" xmlns:xlink="http://www.w3.org/1999/xlink">
	<desc>
			Created with Pixso.
	</desc>
	<defs/>
	<path id="path" d="M20.22 15.3C20.36 15.03 20.47 14.75 20.57 14.47C20.67 14.19 20.75 13.9 20.82 13.61C20.88 13.32 20.93 13.03 20.96 12.73C20.99 12.43 21 12.13 20.99 11.84C20.99 11.54 20.96 11.24 20.92 10.94C20.88 10.65 20.82 10.36 20.75 10.07C20.67 9.78 20.58 9.5 20.47 9.22C20.36 8.94 20.23 8.67 20.09 8.41C19.94 8.15 19.79 7.89 19.61 7.65C19.44 7.41 19.26 7.17 19.06 6.95C18.86 6.73 18.64 6.52 18.42 6.33C18.19 6.13 17.96 5.95 17.71 5.78C17.46 5.61 17.21 5.46 16.94 5.32C16.68 5.19 16.41 5.07 16.12 4.96C15.84 4.86 15.56 4.77 15.27 4.7C14.98 4.63 14.69 4.57 14.39 4.54C14.29 4.31 14.18 4.08 14.06 3.87C13.94 3.65 13.81 3.44 13.67 3.23C13.53 3.03 13.37 2.83 13.21 2.64C13.05 2.45 12.88 2.27 12.7 2.09C12.52 1.92 12.33 1.76 12.14 1.6C11.94 1.45 11.74 1.3 11.53 1.17C11.32 1.04 11.1 0.91 10.88 0.8C10.65 0.69 10.43 0.59 10.19 0.5C9.96 0.41 9.72 0.33 9.48 0.26C9.24 0.2 9 0.14 8.75 0.1C8.51 0.06 8.26 0.03 8.01 0.01C7.76 0 7.51 -0.01 7.26 0C7.01 0.01 6.76 0.03 6.52 0.06C6.27 0.09 6.02 0.14 5.78 0.19C5.54 0.25 5.3 0.32 5.06 0.4C4.83 0.48 4.6 0.58 4.37 0.68C4.14 0.78 3.92 0.9 3.71 1.02C3.49 1.15 3.28 1.29 3.08 1.43C2.88 1.58 2.68 1.74 2.5 1.9C2.31 2.07 2.14 2.25 1.97 2.43C1.8 2.61 1.64 2.81 1.49 3.01C1.34 3.21 1.2 3.41 1.07 3.63C0.94 3.84 0.83 4.06 0.72 4.29C0.61 4.51 0.52 4.74 0.43 4.98C0.35 5.21 0.28 5.45 0.22 5.69C0.16 5.94 0.11 6.18 0.08 6.43C0.04 6.67 0.02 6.92 0 7.17C0 7.42 0 7.67 0.01 7.92C0.02 8.17 0.05 8.42 0.09 8.66C0.13 8.91 0.18 9.15 0.24 9.39C0.31 9.64 0.38 9.87 0.47 10.11C0.56 10.34 0.65 10.57 0.76 10.8L0.05 13.31C-0.02 13.54 -0.02 13.77 0.04 14C0.1 14.23 0.21 14.43 0.38 14.6C0.55 14.77 0.75 14.88 0.98 14.94C1.21 15 1.44 15 1.67 14.93L4.18 14.21C4.95 14.59 5.75 14.83 6.59 14.93C6.7 15.16 6.81 15.39 6.93 15.61C7.05 15.83 7.19 16.05 7.33 16.26C7.48 16.47 7.63 16.67 7.8 16.86C7.96 17.06 8.14 17.24 8.32 17.41C8.5 17.59 8.7 17.76 8.9 17.91C9.1 18.07 9.31 18.21 9.52 18.35C9.74 18.48 9.96 18.6 10.19 18.72C10.41 18.83 10.65 18.93 10.89 19.02C11.13 19.1 11.37 19.18 11.61 19.25C11.86 19.31 12.11 19.36 12.36 19.4C12.61 19.44 12.86 19.46 13.12 19.48C13.37 19.49 13.62 19.49 13.88 19.47C14.13 19.46 14.38 19.44 14.64 19.4C14.89 19.36 15.13 19.31 15.38 19.24C15.63 19.18 15.87 19.1 16.11 19.01C16.34 18.93 16.58 18.83 16.81 18.71L19.32 19.43C19.55 19.5 19.78 19.5 20.01 19.44C20.24 19.38 20.44 19.27 20.61 19.1C20.78 18.93 20.89 18.73 20.95 18.5C21.01 18.27 21.01 18.04 20.94 17.81L20.22 15.3ZM4.26 12.66C4.19 12.66 4.12 12.67 4.06 12.69L1.58 13.4L2.29 10.92C2.34 10.72 2.32 10.54 2.22 10.36C2.11 10.15 2.01 9.93 1.92 9.71C1.83 9.49 1.76 9.27 1.7 9.04C1.64 8.81 1.59 8.57 1.55 8.34C1.52 8.1 1.5 7.87 1.5 7.63C1.49 7.39 1.5 7.15 1.52 6.92C1.54 6.68 1.58 6.44 1.63 6.21C1.68 5.98 1.75 5.75 1.83 5.53C1.9 5.3 1.99 5.08 2.1 4.87C2.2 4.65 2.32 4.45 2.45 4.25C2.58 4.05 2.72 3.85 2.87 3.67C3.02 3.49 3.18 3.31 3.35 3.15C3.53 2.98 3.71 2.83 3.9 2.69C4.09 2.55 4.29 2.42 4.49 2.3C4.7 2.18 4.91 2.07 5.13 1.98C5.35 1.88 5.57 1.8 5.8 1.74C6.03 1.67 6.26 1.62 6.5 1.58C6.73 1.54 6.97 1.51 7.21 1.5C7.44 1.49 7.68 1.49 7.92 1.51C8.16 1.53 8.39 1.56 8.62 1.6C8.86 1.65 9.09 1.71 9.32 1.78C9.54 1.85 9.76 1.94 9.98 2.04C10.2 2.14 10.41 2.25 10.61 2.37C10.81 2.5 11.01 2.63 11.19 2.78C11.38 2.93 11.56 3.08 11.73 3.25C11.9 3.42 12.05 3.6 12.2 3.78C12.35 3.97 12.48 4.17 12.61 4.37C12.73 4.57 12.84 4.78 12.94 5C13.04 5.22 13.13 5.44 13.2 5.66C13.27 5.89 13.33 6.12 13.38 6.35C13.42 6.59 13.45 6.82 13.47 7.06C13.49 7.3 13.49 7.54 13.48 7.77C13.47 8.01 13.44 8.25 13.4 8.48C13.36 8.72 13.31 8.95 13.24 9.18C13.17 9.41 13.09 9.63 13 9.85C12.91 10.07 12.8 10.28 12.68 10.49C12.56 10.69 12.43 10.89 12.29 11.08C12.15 11.27 12 11.45 11.83 11.63C11.67 11.8 11.49 11.96 11.31 12.11C11.13 12.26 10.93 12.4 10.73 12.53C10.53 12.66 10.33 12.78 10.11 12.88C9.9 12.99 9.68 13.08 9.45 13.15C9.23 13.23 9 13.3 8.77 13.35C8.54 13.4 8.3 13.44 8.06 13.46C7.83 13.48 7.59 13.49 7.35 13.48C7.11 13.48 6.88 13.46 6.64 13.43C6.41 13.39 6.17 13.34 5.94 13.28C5.71 13.22 5.49 13.15 5.27 13.06C5.05 12.97 4.83 12.87 4.62 12.76C4.51 12.69 4.39 12.66 4.26 12.66ZM18.7 15.42L19.41 17.9L16.93 17.19C16.74 17.13 16.55 17.16 16.37 17.25C16.03 17.44 15.67 17.59 15.3 17.71C14.93 17.82 14.55 17.9 14.16 17.95C13.77 17.99 13.38 17.99 13 17.96C12.61 17.93 12.23 17.86 11.85 17.75C11.48 17.64 11.11 17.5 10.77 17.33C10.42 17.15 10.09 16.94 9.79 16.7C9.48 16.46 9.2 16.19 8.95 15.89C8.69 15.6 8.47 15.28 8.28 14.94C8.53 14.92 8.79 14.88 9.04 14.82C9.29 14.77 9.54 14.71 9.78 14.63C10.03 14.55 10.27 14.46 10.51 14.35C10.74 14.25 10.97 14.14 11.2 14.01C11.42 13.88 11.64 13.74 11.85 13.59C12.06 13.44 12.26 13.29 12.45 13.12C12.64 12.94 12.83 12.77 13 12.58C13.18 12.39 13.34 12.19 13.5 11.98C13.65 11.78 13.79 11.56 13.93 11.34C14.06 11.12 14.18 10.9 14.29 10.66C14.4 10.43 14.5 10.19 14.58 9.95C14.66 9.7 14.74 9.46 14.79 9.21C14.85 8.96 14.9 8.7 14.93 8.45C14.97 8.19 14.99 7.94 14.99 7.68C15 7.42 14.99 7.16 14.97 6.91C14.95 6.65 14.92 6.4 14.87 6.14C15.1 6.2 15.32 6.26 15.53 6.34C15.75 6.42 15.96 6.51 16.17 6.61C16.37 6.71 16.57 6.83 16.76 6.95C16.96 7.08 17.14 7.21 17.32 7.36C17.5 7.51 17.66 7.66 17.83 7.83C17.98 8 18.13 8.17 18.27 8.35C18.41 8.54 18.54 8.73 18.66 8.92C18.77 9.12 18.88 9.33 18.97 9.54C19.07 9.75 19.15 9.96 19.22 10.18C19.29 10.4 19.34 10.62 19.39 10.85C19.43 11.07 19.46 11.3 19.48 11.53C19.5 11.76 19.5 11.99 19.49 12.22C19.48 12.45 19.46 12.68 19.42 12.91C19.39 13.13 19.34 13.36 19.28 13.58C19.22 13.8 19.14 14.02 19.06 14.23C18.97 14.45 18.87 14.65 18.76 14.86C18.66 15.04 18.64 15.22 18.7 15.42Z" fill="#000000" fill-opacity="1.000000" fill-rule="nonzero"/>
</svg>
