<svg width="22.500000" height="17.999512" viewBox="0 0 22.5 17.9995" fill="none" xmlns="http://www.w3.org/2000/svg" xmlns:xlink="http://www.w3.org/1999/xlink">
	<desc>
			Created with Pixso.
	</desc>
	<defs/>
	<path id="path" d="M1.5 7.49L3.75 7.49L3.75 13.49L2.25 13.49C2.15 13.49 2.05 13.51 1.96 13.55C1.87 13.59 1.78 13.64 1.71 13.71C1.64 13.78 1.59 13.87 1.55 13.96C1.51 14.05 1.5 14.14 1.5 14.24C1.5 14.34 1.51 14.44 1.55 14.53C1.59 14.62 1.64 14.7 1.71 14.77C1.78 14.85 1.87 14.9 1.96 14.94C2.05 14.98 2.15 14.99 2.25 14.99L20.25 14.99C20.34 14.99 20.44 14.98 20.53 14.94C20.62 14.9 20.71 14.85 20.78 14.77C20.85 14.7 20.9 14.62 20.94 14.53C20.98 14.44 21 14.34 21 14.24C21 14.14 20.98 14.05 20.94 13.96C20.9 13.87 20.85 13.78 20.78 13.71C20.71 13.64 20.62 13.59 20.53 13.55C20.44 13.51 20.34 13.49 20.25 13.49L18.75 13.49L18.75 7.49L21 7.49C21.16 7.49 21.31 7.44 21.45 7.34C21.58 7.24 21.67 7.11 21.72 6.95C21.76 6.79 21.75 6.63 21.69 6.47C21.63 6.32 21.53 6.19 21.39 6.11L11.64 0.11C11.52 0.03 11.39 0 11.25 0C11.1 0 10.97 0.03 10.85 0.11L1.1 6.11C0.96 6.19 0.86 6.32 0.8 6.47C0.74 6.63 0.73 6.79 0.77 6.95C0.82 7.11 0.91 7.24 1.04 7.34C1.18 7.44 1.33 7.49 1.5 7.49ZM5.25 7.49L8.25 7.49L8.25 13.49L5.25 13.49L5.25 7.49ZM12.75 7.49L12.75 13.49L9.75 13.49L9.75 7.49L12.75 7.49ZM17.25 13.49L14.25 13.49L14.25 7.49L17.25 7.49L17.25 13.49ZM11.25 1.62L18.35 5.99L4.14 5.99L11.25 1.62ZM22.5 17.24C22.5 17.34 22.48 17.44 22.44 17.53C22.4 17.62 22.35 17.7 22.28 17.77C22.21 17.85 22.12 17.9 22.03 17.94C21.94 17.98 21.84 17.99 21.75 17.99L0.75 17.99C0.65 17.99 0.55 17.98 0.46 17.94C0.37 17.9 0.28 17.85 0.21 17.77C0.14 17.7 0.09 17.62 0.05 17.53C0.01 17.44 0 17.34 0 17.24C0 17.14 0.01 17.05 0.05 16.96C0.09 16.87 0.14 16.78 0.21 16.71C0.28 16.64 0.37 16.59 0.46 16.55C0.55 16.51 0.65 16.49 0.75 16.49L21.75 16.49C21.84 16.49 21.94 16.51 22.03 16.55C22.12 16.59 22.21 16.64 22.28 16.71C22.35 16.78 22.4 16.87 22.44 16.96C22.48 17.05 22.5 17.14 22.5 17.24Z" fill="#000000" fill-opacity="1.000000" fill-rule="nonzero"/>
</svg>
