<svg width="18.750000" height="19.500000" viewBox="0 0 18.75 19.5" fill="none" xmlns="http://www.w3.org/2000/svg" xmlns:xlink="http://www.w3.org/1999/xlink">
	<desc>
			Created with Pixso.
	</desc>
	<defs/>
	<path id="path" d="M5.54 14.1C5.62 14.15 5.71 14.2 5.81 14.22C5.9 14.25 6 14.25 6.1 14.24C6.2 14.22 6.29 14.19 6.38 14.14C6.46 14.09 6.54 14.02 6.59 13.95C6.71 13.79 6.83 13.65 6.96 13.51C7.09 13.38 7.23 13.25 7.37 13.13C7.52 13.01 7.67 12.89 7.83 12.79C7.98 12.69 8.15 12.59 8.32 12.51C8.48 12.43 8.66 12.35 8.83 12.29C9.01 12.22 9.19 12.17 9.37 12.13C9.56 12.08 9.74 12.05 9.93 12.03C10.12 12.01 10.31 12 10.5 12C10.68 12 10.87 12.01 11.06 12.03C11.25 12.05 11.43 12.08 11.62 12.13C11.8 12.17 11.98 12.22 12.16 12.29C12.33 12.35 12.51 12.43 12.67 12.51C12.84 12.59 13.01 12.69 13.16 12.79C13.32 12.89 13.47 13.01 13.62 13.13C13.76 13.25 13.9 13.38 14.03 13.51C14.16 13.65 14.28 13.79 14.4 13.95C14.46 14.02 14.53 14.09 14.61 14.14C14.7 14.19 14.79 14.22 14.89 14.24C14.99 14.25 15.08 14.25 15.18 14.22C15.28 14.2 15.37 14.15 15.45 14.1C15.52 14.04 15.59 13.96 15.64 13.88C15.69 13.79 15.72 13.7 15.74 13.6C15.75 13.5 15.75 13.41 15.72 13.31C15.7 13.21 15.66 13.12 15.59 13.04C14.92 12.14 14.06 11.46 13.03 11.01C13.21 10.84 13.38 10.66 13.53 10.45C13.67 10.25 13.8 10.04 13.91 9.81C14.01 9.58 14.09 9.34 14.15 9.1C14.21 8.85 14.24 8.61 14.25 8.36C14.25 8.1 14.24 7.86 14.19 7.61C14.15 7.36 14.08 7.12 13.99 6.89C13.9 6.65 13.79 6.43 13.66 6.22C13.52 6.01 13.36 5.81 13.19 5.63C13.01 5.45 12.82 5.29 12.62 5.15C12.41 5.01 12.19 4.89 11.96 4.79C11.73 4.69 11.49 4.62 11.24 4.57C11 4.52 10.75 4.49 10.5 4.49C10.25 4.49 10 4.52 9.75 4.57C9.51 4.62 9.27 4.69 9.04 4.79C8.81 4.89 8.59 5.01 8.38 5.15C8.17 5.29 7.98 5.45 7.81 5.63C7.63 5.81 7.48 6.01 7.34 6.22C7.2 6.43 7.09 6.65 7 6.89C6.91 7.12 6.84 7.36 6.8 7.61C6.76 7.86 6.74 8.1 6.75 8.36C6.76 8.61 6.79 8.85 6.85 9.1C6.9 9.34 6.99 9.58 7.09 9.81C7.2 10.04 7.32 10.25 7.47 10.45C7.62 10.66 7.78 10.84 7.97 11.01C6.93 11.46 6.07 12.14 5.4 13.04C5.33 13.12 5.29 13.21 5.27 13.31C5.24 13.41 5.24 13.5 5.25 13.6C5.27 13.7 5.3 13.79 5.35 13.88C5.4 13.96 5.46 14.04 5.54 14.1ZM8.25 8.25C8.25 8.1 8.26 7.95 8.29 7.81C8.32 7.66 8.36 7.52 8.42 7.38C8.47 7.25 8.54 7.12 8.62 7C8.71 6.87 8.8 6.76 8.9 6.65C9.01 6.55 9.12 6.46 9.25 6.37C9.37 6.29 9.5 6.22 9.63 6.17C9.77 6.11 9.91 6.07 10.06 6.04C10.2 6.01 10.35 6 10.5 6C10.64 6 10.79 6.01 10.93 6.04C11.08 6.07 11.22 6.11 11.36 6.17C11.49 6.22 11.62 6.29 11.75 6.37C11.87 6.46 11.98 6.55 12.09 6.65C12.19 6.76 12.28 6.87 12.37 7C12.45 7.12 12.52 7.25 12.57 7.38C12.63 7.52 12.67 7.66 12.7 7.81C12.73 7.95 12.75 8.1 12.75 8.25C12.75 8.39 12.73 8.54 12.7 8.68C12.67 8.83 12.63 8.97 12.57 9.11C12.52 9.24 12.45 9.37 12.37 9.5C12.28 9.62 12.19 9.73 12.09 9.84C11.98 9.94 11.87 10.03 11.75 10.12C11.62 10.2 11.49 10.27 11.36 10.32C11.22 10.38 11.08 10.42 10.93 10.45C10.79 10.48 10.64 10.5 10.5 10.5C10.35 10.5 10.2 10.48 10.06 10.45C9.91 10.42 9.77 10.38 9.63 10.32C9.5 10.27 9.37 10.2 9.25 10.12C9.12 10.03 9.01 9.94 8.9 9.84C8.8 9.73 8.71 9.62 8.62 9.5C8.54 9.37 8.47 9.24 8.42 9.11C8.36 8.97 8.32 8.83 8.29 8.68C8.26 8.54 8.25 8.39 8.25 8.25ZM17.25 0L3.75 0C3.55 0 3.35 0.03 3.17 0.11C2.99 0.19 2.83 0.29 2.68 0.43C2.54 0.58 2.44 0.74 2.36 0.92C2.28 1.1 2.25 1.3 2.25 1.5L2.25 3.75L0.75 3.75C0.65 3.75 0.55 3.76 0.46 3.8C0.37 3.84 0.29 3.89 0.21 3.96C0.14 4.04 0.09 4.12 0.05 4.21C0.01 4.3 0 4.4 0 4.5C0 4.59 0.01 4.69 0.05 4.78C0.09 4.87 0.14 4.95 0.21 5.03C0.29 5.1 0.37 5.15 0.46 5.19C0.55 5.23 0.65 5.25 0.75 5.25L2.25 5.25L2.25 9L0.75 9C0.65 9 0.55 9.01 0.46 9.05C0.37 9.09 0.29 9.14 0.21 9.21C0.14 9.29 0.09 9.37 0.05 9.46C0.01 9.55 0 9.65 0 9.75C0 9.84 0.01 9.94 0.05 10.03C0.09 10.12 0.14 10.21 0.21 10.28C0.29 10.35 0.37 10.4 0.46 10.44C0.55 10.48 0.65 10.5 0.75 10.5L2.25 10.5L2.25 14.25L0.75 14.25C0.65 14.25 0.55 14.26 0.46 14.3C0.37 14.34 0.29 14.39 0.21 14.46C0.14 14.54 0.09 14.62 0.05 14.71C0.01 14.8 0 14.9 0 15C0 15.09 0.01 15.19 0.05 15.28C0.09 15.37 0.14 15.46 0.21 15.53C0.29 15.6 0.37 15.65 0.46 15.69C0.55 15.73 0.65 15.75 0.75 15.75L2.25 15.75L2.25 18C2.25 18.19 2.28 18.39 2.36 18.57C2.44 18.75 2.54 18.91 2.68 19.06C2.83 19.2 2.99 19.3 3.17 19.38C3.35 19.46 3.55 19.5 3.75 19.5L17.25 19.5C17.44 19.5 17.64 19.46 17.82 19.38C18 19.3 18.16 19.2 18.31 19.06C18.45 18.91 18.55 18.75 18.63 18.57C18.71 18.39 18.75 18.19 18.75 18L18.75 1.5C18.75 1.3 18.71 1.1 18.63 0.92C18.55 0.74 18.45 0.58 18.31 0.43C18.16 0.29 18 0.19 17.82 0.11C17.64 0.03 17.44 0 17.25 0ZM17.25 18L3.75 18L3.75 1.5L17.25 1.5L17.25 18Z" fill="#000000" fill-opacity="1.000000" fill-rule="nonzero"/>
</svg>
