<svg width="18.000000" height="19.500000" viewBox="0 0 18 19.5" fill="none" xmlns="http://www.w3.org/2000/svg" xmlns:xlink="http://www.w3.org/1999/xlink">
	<desc>
			Created with Pixso.
	</desc>
	<defs/>
	<path id="path" d="M17.25 3L13.5 3L13.5 2.25C13.5 2.1 13.48 1.95 13.45 1.81C13.42 1.66 13.38 1.52 13.32 1.38C13.27 1.25 13.2 1.12 13.12 1C13.03 0.87 12.94 0.76 12.84 0.65C12.73 0.55 12.62 0.46 12.5 0.37C12.37 0.29 12.24 0.22 12.11 0.17C11.97 0.11 11.83 0.07 11.68 0.04C11.54 0.01 11.39 0 11.25 0L6.75 0C6.6 0 6.45 0.01 6.31 0.04C6.16 0.07 6.02 0.11 5.88 0.17C5.75 0.22 5.62 0.29 5.5 0.37C5.37 0.46 5.26 0.55 5.15 0.65C5.05 0.76 4.96 0.87 4.87 1C4.79 1.12 4.72 1.25 4.67 1.38C4.61 1.52 4.57 1.66 4.54 1.81C4.51 1.95 4.5 2.1 4.5 2.25L4.5 3L0.75 3C0.65 3 0.55 3.01 0.46 3.05C0.37 3.09 0.29 3.14 0.21 3.21C0.14 3.29 0.09 3.37 0.05 3.46C0.01 3.55 0 3.65 0 3.75C0 3.84 0.01 3.94 0.05 4.03C0.09 4.12 0.14 4.2 0.21 4.28C0.29 4.35 0.37 4.4 0.46 4.44C0.55 4.48 0.65 4.5 0.75 4.5L1.5 4.5L1.5 18C1.5 18.19 1.53 18.39 1.61 18.57C1.69 18.75 1.79 18.91 1.93 19.06C2.08 19.2 2.24 19.3 2.42 19.38C2.6 19.46 2.8 19.5 3 19.5L15 19.5C15.19 19.5 15.39 19.46 15.57 19.38C15.75 19.3 15.91 19.2 16.06 19.06C16.2 18.91 16.3 18.75 16.38 18.57C16.46 18.39 16.5 18.19 16.5 18L16.5 4.5L17.25 4.5C17.34 4.5 17.44 4.48 17.53 4.44C17.62 4.4 17.7 4.35 17.78 4.28C17.85 4.2 17.9 4.12 17.94 4.03C17.98 3.94 18 3.84 18 3.75C18 3.65 17.98 3.55 17.94 3.46C17.9 3.37 17.85 3.29 17.78 3.21C17.7 3.14 17.62 3.09 17.53 3.05C17.44 3.01 17.34 3 17.25 3ZM6 2.25C6 2.15 6.01 2.05 6.05 1.96C6.09 1.87 6.14 1.79 6.21 1.71C6.29 1.64 6.37 1.59 6.46 1.55C6.55 1.51 6.65 1.5 6.75 1.5L11.25 1.5C11.34 1.5 11.44 1.51 11.53 1.55C11.62 1.59 11.71 1.64 11.78 1.71C11.85 1.79 11.9 1.87 11.94 1.96C11.98 2.05 12 2.15 12 2.25L12 3L6 3L6 2.25ZM15 18L3 18L3 4.5L15 4.5L15 18ZM7.5 8.25L7.5 14.25C7.5 14.34 7.48 14.44 7.44 14.53C7.4 14.62 7.35 14.71 7.28 14.78C7.2 14.85 7.12 14.9 7.03 14.94C6.94 14.98 6.84 15 6.75 15C6.65 15 6.55 14.98 6.46 14.94C6.37 14.9 6.29 14.85 6.21 14.78C6.14 14.71 6.09 14.62 6.05 14.53C6.01 14.44 6 14.34 6 14.25L6 8.25C6 8.15 6.01 8.05 6.05 7.96C6.09 7.87 6.14 7.79 6.21 7.71C6.29 7.64 6.37 7.59 6.46 7.55C6.55 7.51 6.65 7.5 6.75 7.5C6.84 7.5 6.94 7.51 7.03 7.55C7.12 7.59 7.2 7.64 7.28 7.71C7.35 7.79 7.4 7.87 7.44 7.96C7.48 8.05 7.5 8.15 7.5 8.25ZM12 8.25L12 14.25C12 14.34 11.98 14.44 11.94 14.53C11.9 14.62 11.85 14.71 11.78 14.78C11.71 14.85 11.62 14.9 11.53 14.94C11.44 14.98 11.34 15 11.25 15C11.15 15 11.05 14.98 10.96 14.94C10.87 14.9 10.79 14.85 10.71 14.78C10.64 14.71 10.59 14.62 10.55 14.53C10.51 14.44 10.5 14.34 10.5 14.25L10.5 8.25C10.5 8.15 10.51 8.05 10.55 7.96C10.59 7.87 10.64 7.79 10.71 7.71C10.79 7.64 10.87 7.59 10.96 7.55C11.05 7.51 11.15 7.5 11.25 7.5C11.34 7.5 11.44 7.51 11.53 7.55C11.62 7.59 11.71 7.64 11.78 7.71C11.85 7.79 11.9 7.87 11.94 7.96C11.98 8.05 12 8.15 12 8.25Z" fill="#FF0000" fill-opacity="1.000000" fill-rule="nonzero"/>
</svg>
