<svg width="22.500000" height="19.500977" viewBox="0 0 22.5 19.501" fill="none" xmlns="http://www.w3.org/2000/svg" xmlns:xlink="http://www.w3.org/1999/xlink">
	<desc>
			Created with Pixso.
	</desc>
	<defs/>
	<path id="path" d="M21.75 18L20.25 18L20.25 7.5C20.25 7.3 20.21 7.11 20.13 6.92C20.05 6.74 19.95 6.58 19.81 6.44C19.66 6.29 19.5 6.19 19.32 6.11C19.14 6.03 18.94 6 18.75 6L12.75 6L12.75 1.5C12.75 1.22 12.67 0.96 12.53 0.72C12.39 0.49 12.2 0.3 11.95 0.17C11.71 0.04 11.45 -0.02 11.17 0C10.9 0.01 10.64 0.09 10.41 0.25L2.91 5.25C2.7 5.39 2.54 5.57 2.42 5.79C2.3 6.01 2.25 6.25 2.25 6.5L2.25 18L0.75 18C0.65 18 0.55 18.02 0.46 18.05C0.37 18.09 0.29 18.15 0.21 18.22C0.14 18.29 0.09 18.37 0.05 18.46C0.01 18.55 0 18.65 0 18.75C0 18.85 0.01 18.94 0.05 19.03C0.09 19.12 0.14 19.21 0.21 19.28C0.29 19.35 0.37 19.4 0.46 19.44C0.55 19.48 0.65 19.5 0.75 19.5L21.75 19.5C21.84 19.5 21.94 19.48 22.03 19.44C22.12 19.4 22.21 19.35 22.28 19.28C22.35 19.21 22.4 19.12 22.44 19.03C22.48 18.94 22.5 18.85 22.5 18.75C22.5 18.65 22.48 18.55 22.44 18.46C22.4 18.37 22.35 18.29 22.28 18.22C22.21 18.15 22.12 18.09 22.03 18.05C21.94 18.02 21.84 18 21.75 18ZM18.75 7.5L18.75 18L12.75 18L12.75 7.5L18.75 7.5ZM3.75 6.5L11.25 1.5L11.25 18L3.75 18L3.75 6.5ZM9.75 9L9.75 10.5C9.75 10.6 9.73 10.69 9.69 10.78C9.65 10.87 9.6 10.96 9.53 11.03C9.45 11.1 9.37 11.15 9.28 11.19C9.19 11.23 9.09 11.25 9 11.25C8.9 11.25 8.8 11.23 8.71 11.19C8.62 11.15 8.54 11.1 8.46 11.03C8.39 10.96 8.34 10.87 8.3 10.78C8.26 10.69 8.25 10.6 8.25 10.5L8.25 9C8.25 8.9 8.26 8.8 8.3 8.71C8.34 8.62 8.39 8.54 8.46 8.47C8.54 8.4 8.62 8.34 8.71 8.3C8.8 8.27 8.9 8.25 9 8.25C9.09 8.25 9.19 8.27 9.28 8.3C9.37 8.34 9.45 8.4 9.53 8.47C9.6 8.54 9.65 8.62 9.69 8.71C9.73 8.8 9.75 8.9 9.75 9ZM6.75 9L6.75 10.5C6.75 10.6 6.73 10.69 6.69 10.78C6.65 10.87 6.6 10.96 6.53 11.03C6.45 11.1 6.37 11.15 6.28 11.19C6.19 11.23 6.09 11.25 6 11.25C5.9 11.25 5.8 11.23 5.71 11.19C5.62 11.15 5.54 11.1 5.46 11.03C5.39 10.96 5.34 10.87 5.3 10.78C5.26 10.69 5.25 10.6 5.25 10.5L5.25 9C5.25 8.9 5.26 8.8 5.3 8.71C5.34 8.62 5.39 8.54 5.46 8.47C5.54 8.4 5.62 8.34 5.71 8.3C5.8 8.27 5.9 8.25 6 8.25C6.09 8.25 6.19 8.27 6.28 8.3C6.37 8.34 6.45 8.4 6.53 8.47C6.6 8.54 6.65 8.62 6.69 8.71C6.73 8.8 6.75 8.9 6.75 9ZM6.75 14.25L6.75 15.75C6.75 15.85 6.73 15.94 6.69 16.03C6.65 16.12 6.6 16.21 6.53 16.28C6.45 16.35 6.37 16.4 6.28 16.44C6.19 16.48 6.09 16.5 6 16.5C5.9 16.5 5.8 16.48 5.71 16.44C5.62 16.4 5.54 16.35 5.46 16.28C5.39 16.21 5.34 16.12 5.3 16.03C5.26 15.94 5.25 15.85 5.25 15.75L5.25 14.25C5.25 14.15 5.26 14.05 5.3 13.96C5.34 13.87 5.39 13.79 5.46 13.72C5.54 13.65 5.62 13.59 5.71 13.55C5.8 13.52 5.9 13.5 6 13.5C6.09 13.5 6.19 13.52 6.28 13.55C6.37 13.59 6.45 13.65 6.53 13.72C6.6 13.79 6.65 13.87 6.69 13.96C6.73 14.05 6.75 14.15 6.75 14.25ZM9.75 14.25L9.75 15.75C9.75 15.85 9.73 15.94 9.69 16.03C9.65 16.12 9.6 16.21 9.53 16.28C9.45 16.35 9.37 16.4 9.28 16.44C9.19 16.48 9.09 16.5 9 16.5C8.9 16.5 8.8 16.48 8.71 16.44C8.62 16.4 8.54 16.35 8.46 16.28C8.39 16.21 8.34 16.12 8.3 16.03C8.26 15.94 8.25 15.85 8.25 15.75L8.25 14.25C8.25 14.15 8.26 14.05 8.3 13.96C8.34 13.87 8.39 13.79 8.46 13.72C8.54 13.65 8.62 13.59 8.71 13.55C8.8 13.52 8.9 13.5 9 13.5C9.09 13.5 9.19 13.52 9.28 13.55C9.37 13.59 9.45 13.65 9.53 13.72C9.6 13.79 9.65 13.87 9.69 13.96C9.73 14.05 9.75 14.15 9.75 14.25Z" fill="#000000" fill-opacity="1.000000" fill-rule="nonzero"/>
</svg>
