<svg width="22.501953" height="16.526367" viewBox="0 0 22.502 16.5264" fill="none" xmlns="http://www.w3.org/2000/svg" xmlns:xlink="http://www.w3.org/1999/xlink">
	<desc>
			Created with Pixso.
	</desc>
	<defs/>
	<path id="path" d="M22.2 9.59C22.12 9.65 22.03 9.7 21.93 9.72C21.83 9.75 21.74 9.75 21.64 9.74C21.54 9.72 21.45 9.69 21.36 9.64C21.28 9.59 21.2 9.52 21.15 9.44C20.92 9.14 20.66 8.87 20.37 8.62C20.08 8.38 19.77 8.17 19.43 8C19.09 7.84 18.74 7.71 18.37 7.62C18 7.54 17.62 7.49 17.25 7.49C17.09 7.49 16.96 7.45 16.83 7.37C16.71 7.29 16.61 7.17 16.55 7.04C16.47 6.84 16.47 6.65 16.55 6.45C16.61 6.31 16.71 6.2 16.83 6.12C16.96 6.04 17.09 5.99 17.25 5.99C17.39 5.99 17.52 5.98 17.66 5.96C17.8 5.93 17.93 5.89 18.06 5.84C18.19 5.79 18.32 5.73 18.44 5.65C18.55 5.58 18.66 5.5 18.77 5.4C18.87 5.31 18.96 5.2 19.05 5.09C19.13 4.98 19.2 4.86 19.26 4.73C19.33 4.61 19.38 4.48 19.41 4.34C19.45 4.21 19.48 4.07 19.49 3.93C19.5 3.79 19.5 3.66 19.48 3.52C19.47 3.38 19.44 3.24 19.4 3.11C19.36 2.97 19.31 2.84 19.25 2.72C19.18 2.59 19.11 2.48 19.02 2.37C18.94 2.26 18.84 2.15 18.74 2.06C18.63 1.97 18.52 1.89 18.4 1.81C18.28 1.74 18.16 1.68 18.03 1.63C17.9 1.59 17.76 1.55 17.62 1.53C17.49 1.5 17.35 1.49 17.21 1.49C17.07 1.5 16.93 1.51 16.79 1.54C16.65 1.57 16.52 1.61 16.39 1.66C16.26 1.72 16.14 1.78 16.02 1.86C15.91 1.93 15.8 2.02 15.69 2.11C15.59 2.21 15.5 2.32 15.42 2.43C15.34 2.54 15.27 2.66 15.21 2.79C15.15 2.92 15.1 3.05 15.07 3.18C15.04 3.28 15 3.37 14.94 3.45C14.88 3.52 14.81 3.59 14.72 3.64C14.64 3.69 14.54 3.72 14.44 3.74C14.35 3.75 14.25 3.75 14.15 3.72C14.06 3.7 13.97 3.65 13.89 3.59C13.81 3.53 13.75 3.46 13.69 3.38C13.64 3.29 13.61 3.2 13.6 3.1C13.58 3 13.59 2.9 13.61 2.81C13.65 2.67 13.69 2.53 13.75 2.39C13.8 2.26 13.86 2.12 13.93 2C14 1.87 14.07 1.74 14.15 1.62C14.24 1.5 14.32 1.39 14.42 1.28C14.51 1.17 14.62 1.07 14.72 0.97C14.83 0.87 14.94 0.78 15.06 0.69C15.18 0.61 15.3 0.53 15.43 0.46C15.56 0.39 15.69 0.33 15.82 0.27C15.96 0.22 16.1 0.17 16.24 0.13C16.38 0.09 16.52 0.06 16.66 0.04C16.81 0.02 16.95 0 17.09 0C17.24 -0.01 17.39 0 17.53 0.01C17.67 0.02 17.82 0.04 17.96 0.06C18.1 0.09 18.25 0.13 18.38 0.17C18.52 0.22 18.66 0.27 18.79 0.33C18.92 0.39 19.05 0.46 19.18 0.53C19.3 0.61 19.42 0.69 19.54 0.78C19.65 0.87 19.76 0.96 19.86 1.06C19.97 1.16 20.07 1.27 20.16 1.38C20.25 1.5 20.33 1.61 20.41 1.74C20.49 1.86 20.56 1.99 20.62 2.12C20.69 2.25 20.74 2.38 20.79 2.52C20.84 2.66 20.88 2.8 20.91 2.94C20.94 3.08 20.96 3.23 20.98 3.37C20.99 3.52 21 3.66 20.99 3.81C20.99 3.95 20.98 4.1 20.96 4.24C20.94 4.38 20.91 4.53 20.88 4.67C20.84 4.81 20.8 4.95 20.75 5.08C20.7 5.22 20.64 5.35 20.57 5.48C20.5 5.61 20.43 5.73 20.34 5.85C20.26 5.97 20.17 6.09 20.08 6.2C19.99 6.31 19.88 6.41 19.78 6.51C20.81 6.96 21.67 7.64 22.35 8.54C22.41 8.62 22.45 8.71 22.47 8.81C22.5 8.9 22.5 9 22.49 9.1C22.48 9.2 22.44 9.29 22.39 9.38C22.34 9.46 22.27 9.53 22.2 9.59ZM17.14 15.37C17.2 15.46 17.24 15.55 17.25 15.65C17.27 15.75 17.26 15.85 17.24 15.95C17.22 16.05 17.17 16.14 17.11 16.22C17.05 16.3 16.98 16.37 16.89 16.42C16.8 16.47 16.7 16.5 16.6 16.52C16.5 16.53 16.4 16.52 16.3 16.49C16.2 16.46 16.12 16.42 16.04 16.35C15.96 16.29 15.89 16.21 15.85 16.12C15.73 15.92 15.6 15.73 15.46 15.55C15.31 15.36 15.16 15.19 15 15.03C14.83 14.87 14.66 14.72 14.47 14.58C14.29 14.44 14.09 14.31 13.89 14.2C13.69 14.08 13.49 13.98 13.27 13.89C13.06 13.8 12.84 13.73 12.62 13.67C12.39 13.61 12.16 13.57 11.94 13.54C11.71 13.51 11.48 13.49 11.25 13.49C11.01 13.49 10.78 13.51 10.55 13.54C10.33 13.57 10.1 13.61 9.88 13.67C9.65 13.73 9.43 13.8 9.22 13.89C9 13.98 8.8 14.08 8.6 14.2C8.4 14.31 8.2 14.44 8.02 14.58C7.83 14.72 7.66 14.87 7.5 15.03C7.33 15.19 7.18 15.36 7.03 15.55C6.89 15.73 6.76 15.92 6.64 16.12C6.6 16.21 6.53 16.29 6.45 16.35C6.38 16.42 6.29 16.46 6.19 16.49C6.09 16.52 5.99 16.53 5.89 16.52C5.79 16.5 5.69 16.47 5.6 16.42C5.52 16.37 5.44 16.3 5.38 16.22C5.32 16.14 5.28 16.05 5.25 15.95C5.23 15.85 5.22 15.75 5.24 15.65C5.26 15.55 5.29 15.46 5.35 15.37C5.71 14.74 6.16 14.19 6.7 13.71C7.24 13.23 7.85 12.85 8.51 12.56C8.26 12.37 8.04 12.16 7.83 11.92C7.63 11.69 7.45 11.43 7.3 11.16C7.15 10.89 7.03 10.6 6.94 10.3C6.85 10 6.79 9.7 6.76 9.39C6.74 9.08 6.74 8.77 6.78 8.46C6.82 8.15 6.88 7.84 6.98 7.55C7.08 7.25 7.21 6.97 7.37 6.7C7.53 6.43 7.72 6.18 7.93 5.95C8.14 5.72 8.37 5.52 8.62 5.33C8.88 5.15 9.15 5 9.43 4.87C9.72 4.75 10.01 4.65 10.32 4.59C10.62 4.52 10.93 4.49 11.25 4.49C11.56 4.49 11.87 4.52 12.17 4.59C12.48 4.65 12.77 4.75 13.06 4.87C13.34 5 13.61 5.15 13.87 5.33C14.12 5.52 14.35 5.72 14.56 5.95C14.77 6.18 14.96 6.43 15.12 6.7C15.28 6.97 15.41 7.25 15.51 7.55C15.61 7.84 15.68 8.15 15.71 8.46C15.75 8.77 15.75 9.08 15.73 9.39C15.7 9.7 15.64 10 15.55 10.3C15.46 10.6 15.34 10.89 15.19 11.16C15.04 11.43 14.86 11.69 14.66 11.92C14.45 12.16 14.23 12.37 13.98 12.56C14.65 12.85 15.25 13.23 15.79 13.71C16.33 14.19 16.78 14.74 17.14 15.37ZM11.25 11.99C11.44 11.99 11.64 11.98 11.83 11.94C12.02 11.9 12.21 11.84 12.39 11.77C12.58 11.69 12.75 11.6 12.91 11.49C13.08 11.38 13.23 11.25 13.37 11.12C13.51 10.98 13.63 10.82 13.74 10.66C13.85 10.5 13.94 10.32 14.02 10.14C14.09 9.96 14.15 9.77 14.19 9.58C14.23 9.39 14.25 9.19 14.25 8.99C14.25 8.8 14.23 8.6 14.19 8.41C14.15 8.22 14.09 8.03 14.02 7.85C13.94 7.66 13.85 7.49 13.74 7.33C13.63 7.16 13.51 7.01 13.37 6.87C13.23 6.73 13.08 6.61 12.91 6.5C12.75 6.39 12.58 6.3 12.39 6.22C12.21 6.15 12.02 6.09 11.83 6.05C11.64 6.01 11.44 5.99 11.25 5.99C11.05 5.99 10.85 6.01 10.66 6.05C10.47 6.09 10.28 6.15 10.1 6.22C9.91 6.3 9.74 6.39 9.58 6.5C9.41 6.61 9.26 6.73 9.12 6.87C8.99 7.01 8.86 7.16 8.75 7.33C8.64 7.49 8.55 7.66 8.47 7.85C8.4 8.03 8.34 8.22 8.3 8.41C8.26 8.6 8.25 8.8 8.25 8.99C8.25 9.19 8.26 9.39 8.3 9.58C8.34 9.77 8.4 9.96 8.47 10.14C8.55 10.32 8.64 10.5 8.75 10.66C8.86 10.82 8.99 10.98 9.12 11.12C9.26 11.25 9.41 11.38 9.58 11.49C9.74 11.6 9.91 11.69 10.1 11.77C10.28 11.84 10.47 11.9 10.66 11.94C10.85 11.98 11.05 11.99 11.25 11.99ZM6 6.74C6 6.64 5.98 6.55 5.94 6.46C5.9 6.37 5.85 6.28 5.78 6.21C5.71 6.14 5.62 6.09 5.53 6.05C5.44 6.01 5.34 5.99 5.25 5.99C5.11 5.99 4.97 5.98 4.83 5.96C4.69 5.93 4.56 5.89 4.43 5.84C4.3 5.79 4.17 5.73 4.06 5.65C3.94 5.58 3.83 5.5 3.72 5.4C3.62 5.31 3.53 5.2 3.44 5.09C3.36 4.98 3.29 4.86 3.23 4.73C3.16 4.61 3.11 4.48 3.08 4.34C3.04 4.21 3.01 4.07 3 3.93C2.99 3.79 2.99 3.66 3.01 3.52C3.02 3.38 3.05 3.24 3.09 3.11C3.13 2.97 3.18 2.84 3.24 2.72C3.31 2.59 3.38 2.48 3.47 2.37C3.55 2.26 3.65 2.15 3.75 2.06C3.86 1.97 3.97 1.89 4.09 1.81C4.21 1.74 4.33 1.68 4.47 1.63C4.6 1.59 4.73 1.55 4.87 1.53C5.01 1.5 5.15 1.49 5.28 1.49C5.42 1.5 5.56 1.51 5.7 1.54C5.84 1.57 5.97 1.61 6.1 1.66C6.23 1.72 6.35 1.78 6.47 1.86C6.59 1.93 6.7 2.02 6.8 2.11C6.9 2.21 6.99 2.32 7.07 2.43C7.15 2.54 7.22 2.66 7.28 2.79C7.34 2.92 7.39 3.05 7.42 3.18C7.45 3.28 7.49 3.37 7.55 3.45C7.61 3.53 7.68 3.59 7.77 3.64C7.85 3.69 7.95 3.72 8.05 3.74C8.14 3.75 8.24 3.75 8.34 3.72C8.43 3.7 8.52 3.65 8.6 3.59C8.68 3.53 8.75 3.46 8.8 3.38C8.85 3.29 8.88 3.2 8.89 3.1C8.91 3 8.9 2.9 8.88 2.81C8.84 2.67 8.8 2.53 8.74 2.39C8.69 2.26 8.63 2.12 8.56 2C8.5 1.87 8.42 1.74 8.34 1.62C8.26 1.5 8.17 1.39 8.07 1.28C7.98 1.17 7.87 1.07 7.77 0.97C7.66 0.87 7.55 0.78 7.43 0.69C7.31 0.61 7.19 0.53 7.06 0.46C6.93 0.39 6.8 0.33 6.67 0.27C6.53 0.22 6.4 0.17 6.25 0.13C6.11 0.09 5.97 0.06 5.83 0.04C5.68 0.02 5.54 0 5.4 0C5.25 -0.01 5.1 0 4.96 0.01C4.82 0.02 4.67 0.04 4.53 0.06C4.39 0.09 4.25 0.13 4.11 0.17C3.97 0.22 3.83 0.27 3.7 0.33C3.57 0.39 3.44 0.46 3.32 0.53C3.19 0.61 3.07 0.69 2.96 0.78C2.84 0.87 2.73 0.96 2.63 1.06C2.52 1.16 2.42 1.27 2.33 1.38C2.24 1.5 2.16 1.61 2.08 1.74C2 1.86 1.93 1.99 1.87 2.12C1.8 2.25 1.75 2.38 1.7 2.52C1.66 2.66 1.61 2.8 1.58 2.94C1.55 3.08 1.53 3.23 1.51 3.37C1.5 3.52 1.5 3.66 1.5 3.81C1.5 3.95 1.51 4.1 1.53 4.24C1.55 4.38 1.58 4.53 1.61 4.67C1.65 4.81 1.69 4.95 1.74 5.08C1.8 5.22 1.85 5.35 1.92 5.48C1.99 5.61 2.06 5.73 2.15 5.85C2.23 5.97 2.32 6.09 2.41 6.2C2.5 6.31 2.61 6.41 2.71 6.51C1.68 6.96 0.82 7.64 0.15 8.54C0.08 8.62 0.04 8.71 0.02 8.81C-0.01 8.9 -0.01 9 0 9.1C0.02 9.2 0.05 9.29 0.1 9.38C0.15 9.46 0.22 9.53 0.3 9.59C0.37 9.65 0.46 9.7 0.56 9.72C0.66 9.75 0.75 9.75 0.85 9.74C0.95 9.72 1.04 9.69 1.13 9.64C1.21 9.59 1.29 9.52 1.34 9.44C1.57 9.14 1.83 8.87 2.12 8.62C2.41 8.38 2.72 8.17 3.06 8C3.4 7.84 3.75 7.71 4.12 7.62C4.49 7.54 4.87 7.49 5.25 7.49C5.34 7.49 5.44 7.47 5.53 7.44C5.62 7.4 5.71 7.34 5.78 7.27C5.85 7.2 5.9 7.12 5.94 7.03C5.98 6.94 6 6.84 6 6.74Z" fill="#000000" fill-opacity="1.000000" fill-rule="nonzero"/>
</svg>
