<svg width="19.500000" height="15.000000" viewBox="0 0 19.5 15" fill="none" xmlns="http://www.w3.org/2000/svg" xmlns:xlink="http://www.w3.org/1999/xlink">
	<desc>
			Created with Pixso.
	</desc>
	<defs/>
	<path id="path" d="M18.75 0L0.75 0C0.65 0 0.55 0.01 0.46 0.05C0.37 0.09 0.28 0.14 0.21 0.21C0.14 0.29 0.09 0.37 0.05 0.46C0.01 0.55 0 0.65 0 0.75L0 13.5C0 13.69 0.03 13.89 0.11 14.07C0.18 14.25 0.29 14.41 0.43 14.56C0.58 14.7 0.74 14.8 0.92 14.88C1.1 14.96 1.3 15 1.5 15L18 15C18.19 15 18.39 14.96 18.57 14.88C18.75 14.8 18.91 14.7 19.06 14.56C19.2 14.41 19.31 14.25 19.38 14.07C19.46 13.89 19.5 13.69 19.5 13.5L19.5 0.75C19.5 0.65 19.48 0.55 19.44 0.46C19.4 0.37 19.35 0.29 19.28 0.21C19.21 0.14 19.12 0.09 19.03 0.05C18.94 0.01 18.84 0 18.75 0ZM9.75 7.98L2.67 1.5L16.82 1.5L9.75 7.98ZM7 7.5L1.5 12.54L1.5 2.45L7 7.5ZM8.11 8.51L9.23 9.55C9.3 9.61 9.38 9.66 9.47 9.69C9.56 9.73 9.65 9.75 9.74 9.75C9.83 9.75 9.93 9.73 10.01 9.69C10.1 9.66 10.18 9.61 10.25 9.55L11.37 8.51L16.81 13.5L2.67 13.5L8.11 8.51ZM12.49 7.5L18 2.45L18 12.54L12.49 7.5Z" fill="#000000" fill-opacity="1.000000" fill-rule="nonzero"/>
</svg>
