<svg width="24.000000" height="24.000000" viewBox="0 0 24 24" fill="none" xmlns="http://www.w3.org/2000/svg" xmlns:xlink="http://www.w3.org/1999/xlink">
	<desc>
			Created with Pixso.
	</desc>
	<defs>
		<clipPath id="clip2_110">
			<rect id="Gradient" width="24.000000" height="24.000000" fill="white" fill-opacity="0"/>
		</clipPath>
	</defs>
	<g opacity="0.850000">
		<g clip-path="url(#clip2_110)">
			<path id="path" d="M2.25 9.75C2.25 9.65 2.26 9.55 2.3 9.46C2.34 9.37 2.39 9.29 2.46 9.21C2.53 9.14 2.62 9.09 2.71 9.05C2.8 9.01 2.9 9 3 9L10.5 9C10.59 9 10.69 9.01 10.78 9.05C10.87 9.09 10.96 9.14 11.03 9.21C11.1 9.29 11.15 9.37 11.19 9.46C11.23 9.55 11.25 9.65 11.25 9.75C11.25 9.84 11.23 9.94 11.19 10.03C11.15 10.12 11.1 10.21 11.03 10.28C10.96 10.35 10.87 10.4 10.78 10.44C10.69 10.48 10.59 10.5 10.5 10.5L3 10.5C2.9 10.5 2.8 10.48 2.71 10.44C2.62 10.4 2.53 10.35 2.46 10.28C2.39 10.21 2.34 10.12 2.3 10.03C2.26 9.94 2.25 9.84 2.25 9.75ZM21 9L13.5 9C13.4 9 13.3 9.01 13.21 9.05C13.12 9.09 13.03 9.14 12.96 9.21C12.89 9.29 12.84 9.37 12.8 9.46C12.76 9.55 12.75 9.65 12.75 9.75C12.75 9.84 12.76 9.94 12.8 10.03C12.84 10.12 12.89 10.21 12.96 10.28C13.03 10.35 13.12 10.4 13.21 10.44C13.3 10.48 13.4 10.5 13.5 10.5L21 10.5C21.09 10.5 21.19 10.48 21.28 10.44C21.37 10.4 21.46 10.35 21.53 10.28C21.6 10.21 21.65 10.12 21.69 10.03C21.73 9.94 21.75 9.84 21.75 9.75C21.75 9.65 21.73 9.55 21.69 9.46C21.65 9.37 21.6 9.29 21.53 9.21C21.46 9.14 21.37 9.09 21.28 9.05C21.19 9.01 21.09 9 21 9ZM6.75 12.75L3 12.75C2.9 12.75 2.8 12.76 2.71 12.8C2.62 12.84 2.53 12.89 2.46 12.96C2.39 13.04 2.34 13.12 2.3 13.21C2.26 13.3 2.25 13.4 2.25 13.5C2.25 13.59 2.26 13.69 2.3 13.78C2.34 13.87 2.39 13.96 2.46 14.03C2.53 14.1 2.62 14.15 2.71 14.19C2.8 14.23 2.9 14.25 3 14.25L6.75 14.25C6.84 14.25 6.94 14.23 7.03 14.19C7.12 14.15 7.21 14.1 7.28 14.03C7.35 13.96 7.4 13.87 7.44 13.78C7.48 13.69 7.5 13.59 7.5 13.5C7.5 13.4 7.48 13.3 7.44 13.21C7.4 13.12 7.35 13.04 7.28 12.96C7.21 12.89 7.12 12.84 7.03 12.8C6.94 12.76 6.84 12.75 6.75 12.75ZM21 12.75L17.25 12.75C17.15 12.75 17.05 12.76 16.96 12.8C16.87 12.84 16.78 12.89 16.71 12.96C16.64 13.04 16.59 13.12 16.55 13.21C16.51 13.3 16.5 13.4 16.5 13.5C16.5 13.59 16.51 13.69 16.55 13.78C16.59 13.87 16.64 13.96 16.71 14.03C16.78 14.1 16.87 14.15 16.96 14.19C17.05 14.23 17.15 14.25 17.25 14.25L21 14.25C21.09 14.25 21.19 14.23 21.28 14.19C21.37 14.15 21.46 14.1 21.53 14.03C21.6 13.96 21.65 13.87 21.69 13.78C21.73 13.69 21.75 13.59 21.75 13.5C21.75 13.4 21.73 13.3 21.69 13.21C21.65 13.12 21.6 13.04 21.53 12.96C21.46 12.89 21.37 12.84 21.28 12.8C21.19 12.76 21.09 12.75 21 12.75ZM9 13.5C9 13.59 9.01 13.69 9.05 13.78C9.09 13.87 9.14 13.96 9.21 14.03C9.28 14.1 9.37 14.15 9.46 14.19C9.55 14.23 9.65 14.25 9.75 14.25L14.25 14.25C14.34 14.25 14.44 14.23 14.53 14.19C14.62 14.15 14.71 14.1 14.78 14.03C14.85 13.96 14.9 13.87 14.94 13.78C14.98 13.69 15 13.59 15 13.5C15 13.4 14.98 13.3 14.94 13.21C14.9 13.12 14.85 13.04 14.78 12.96C14.71 12.89 14.62 12.84 14.53 12.8C14.44 12.76 14.34 12.75 14.25 12.75L9.75 12.75C9.65 12.75 9.55 12.76 9.46 12.8C9.37 12.84 9.28 12.89 9.21 12.96C9.14 13.04 9.09 13.12 9.05 13.21C9.01 13.3 9 13.4 9 13.5ZM5.25 16.5L3 16.5C2.9 16.5 2.8 16.51 2.71 16.55C2.62 16.59 2.53 16.64 2.46 16.71C2.39 16.79 2.34 16.87 2.3 16.96C2.26 17.05 2.25 17.15 2.25 17.25C2.25 17.34 2.26 17.44 2.3 17.53C2.34 17.62 2.39 17.7 2.46 17.78C2.53 17.85 2.62 17.9 2.71 17.94C2.8 17.98 2.9 18 3 18L5.25 18C5.34 18 5.44 17.98 5.53 17.94C5.62 17.9 5.71 17.85 5.78 17.78C5.85 17.7 5.9 17.62 5.94 17.53C5.98 17.44 6 17.34 6 17.25C6 17.15 5.98 17.05 5.94 16.96C5.9 16.87 5.85 16.79 5.78 16.71C5.71 16.64 5.62 16.59 5.53 16.55C5.44 16.51 5.34 16.5 5.25 16.5ZM10.5 16.5L8.25 16.5C8.15 16.5 8.05 16.51 7.96 16.55C7.87 16.59 7.78 16.64 7.71 16.71C7.64 16.79 7.59 16.87 7.55 16.96C7.51 17.05 7.5 17.15 7.5 17.25C7.5 17.34 7.51 17.44 7.55 17.53C7.59 17.62 7.64 17.7 7.71 17.78C7.78 17.85 7.87 17.9 7.96 17.94C8.05 17.98 8.15 18 8.25 18L10.5 18C10.59 18 10.69 17.98 10.78 17.94C10.87 17.9 10.96 17.85 11.03 17.78C11.1 17.7 11.15 17.62 11.19 17.53C11.23 17.44 11.25 17.34 11.25 17.25C11.25 17.15 11.23 17.05 11.19 16.96C11.15 16.87 11.1 16.79 11.03 16.71C10.96 16.64 10.87 16.59 10.78 16.55C10.69 16.51 10.59 16.5 10.5 16.5ZM15.75 16.5L13.5 16.5C13.4 16.5 13.3 16.51 13.21 16.55C13.12 16.59 13.03 16.64 12.96 16.71C12.89 16.79 12.84 16.87 12.8 16.96C12.76 17.05 12.75 17.15 12.75 17.25C12.75 17.34 12.76 17.44 12.8 17.53C12.84 17.62 12.89 17.7 12.96 17.78C13.03 17.85 13.12 17.9 13.21 17.94C13.3 17.98 13.4 18 13.5 18L15.75 18C15.84 18 15.94 17.98 16.03 17.94C16.12 17.9 16.21 17.85 16.28 17.78C16.35 17.7 16.4 17.62 16.44 17.53C16.48 17.44 16.5 17.34 16.5 17.25C16.5 17.15 16.48 17.05 16.44 16.96C16.4 16.87 16.35 16.79 16.28 16.71C16.21 16.64 16.12 16.59 16.03 16.55C15.94 16.51 15.84 16.5 15.75 16.5ZM21 16.5L18.75 16.5C18.65 16.5 18.55 16.51 18.46 16.55C18.37 16.59 18.28 16.64 18.21 16.71C18.14 16.79 18.09 16.87 18.05 16.96C18.01 17.05 18 17.15 18 17.25C18 17.34 18.01 17.44 18.05 17.53C18.09 17.62 18.14 17.7 18.21 17.78C18.28 17.85 18.37 17.9 18.46 17.94C18.55 17.98 18.65 18 18.75 18L21 18C21.09 18 21.19 17.98 21.28 17.94C21.37 17.9 21.46 17.85 21.53 17.78C21.6 17.7 21.65 17.62 21.69 17.53C21.73 17.44 21.75 17.34 21.75 17.25C21.75 17.15 21.73 17.05 21.69 16.96C21.65 16.87 21.6 16.79 21.53 16.71C21.46 16.64 21.37 16.59 21.28 16.55C21.19 16.51 21.09 16.5 21 16.5ZM3 6.75L21 6.75C21.09 6.75 21.19 6.73 21.28 6.69C21.37 6.65 21.46 6.6 21.53 6.53C21.6 6.45 21.65 6.37 21.69 6.28C21.73 6.19 21.75 6.09 21.75 6C21.75 5.9 21.73 5.8 21.69 5.71C21.65 5.62 21.6 5.54 21.53 5.46C21.46 5.39 21.37 5.34 21.28 5.3C21.19 5.26 21.09 5.25 21 5.25L3 5.25C2.9 5.25 2.8 5.26 2.71 5.3C2.62 5.34 2.53 5.39 2.46 5.46C2.39 5.54 2.34 5.62 2.3 5.71C2.26 5.8 2.25 5.9 2.25 6C2.25 6.09 2.26 6.19 2.3 6.28C2.34 6.37 2.39 6.45 2.46 6.53C2.53 6.6 2.62 6.65 2.71 6.69C2.8 6.73 2.9 6.75 3 6.75Z" fill="#000000" fill-opacity="1.000000" fill-rule="nonzero"/>
		</g>
	</g>
</svg>
