<svg width="21.000000" height="15.000000" viewBox="0 0 21 15" fill="none" xmlns="http://www.w3.org/2000/svg" xmlns:xlink="http://www.w3.org/1999/xlink">
	<desc>
			Created with Pixso.
	</desc>
	<defs/>
	<path id="path" d="M19.45 0L1.54 0C1.34 0 1.14 0.03 0.95 0.11C0.76 0.19 0.59 0.3 0.45 0.45C0.3 0.59 0.19 0.76 0.11 0.95C0.04 1.14 0 1.34 0 1.54L0 13.45C0 13.65 0.03 13.85 0.11 14.04C0.19 14.23 0.3 14.4 0.45 14.54C0.59 14.69 0.76 14.8 0.95 14.88C1.14 14.96 1.34 14.99 1.54 15L19.45 15C19.65 15 19.85 14.96 20.04 14.88C20.23 14.8 20.4 14.69 20.54 14.54C20.69 14.4 20.8 14.23 20.88 14.04C20.96 13.85 21 13.65 21 13.45L21 1.54C21 1.34 20.96 1.14 20.88 0.95C20.8 0.76 20.69 0.59 20.54 0.45C20.4 0.3 20.23 0.19 20.04 0.11C19.85 0.03 19.65 0 19.45 0ZM19.5 13.45C19.5 13.48 19.48 13.5 19.45 13.5L1.54 13.5C1.51 13.5 1.5 13.48 1.5 13.45L1.5 1.54C1.5 1.51 1.51 1.5 1.54 1.5L19.45 1.5C19.48 1.5 19.5 1.51 19.5 1.54L19.5 13.45ZM18 7.5C18 7.59 17.98 7.69 17.94 7.78C17.9 7.87 17.85 7.95 17.78 8.03C17.7 8.1 17.62 8.15 17.53 8.19C17.44 8.23 17.34 8.25 17.25 8.25L3.75 8.25C3.65 8.25 3.55 8.23 3.46 8.19C3.37 8.15 3.29 8.1 3.21 8.03C3.14 7.95 3.09 7.87 3.05 7.78C3.01 7.69 3 7.59 3 7.5C3 7.4 3.01 7.3 3.05 7.21C3.09 7.12 3.14 7.04 3.21 6.96C3.29 6.89 3.37 6.84 3.46 6.8C3.55 6.76 3.65 6.75 3.75 6.75L17.25 6.75C17.34 6.75 17.44 6.76 17.53 6.8C17.62 6.84 17.7 6.89 17.78 6.96C17.85 7.04 17.9 7.12 17.94 7.21C17.98 7.3 18 7.4 18 7.5ZM18 4.5C18 4.59 17.98 4.69 17.94 4.78C17.9 4.87 17.85 4.95 17.78 5.03C17.7 5.1 17.62 5.15 17.53 5.19C17.44 5.23 17.34 5.25 17.25 5.25L3.75 5.25C3.65 5.25 3.55 5.23 3.46 5.19C3.37 5.15 3.29 5.1 3.21 5.03C3.14 4.95 3.09 4.87 3.05 4.78C3.01 4.69 3 4.59 3 4.5C3 4.4 3.01 4.3 3.05 4.21C3.09 4.12 3.14 4.04 3.21 3.96C3.29 3.89 3.37 3.84 3.46 3.8C3.55 3.76 3.65 3.75 3.75 3.75L17.25 3.75C17.34 3.75 17.44 3.76 17.53 3.8C17.62 3.84 17.7 3.89 17.78 3.96C17.85 4.04 17.9 4.12 17.94 4.21C17.98 4.3 18 4.4 18 4.5ZM5.25 10.5C5.25 10.59 5.23 10.69 5.19 10.78C5.15 10.87 5.1 10.96 5.03 11.03C4.95 11.1 4.87 11.15 4.78 11.19C4.69 11.23 4.59 11.25 4.5 11.25L3.75 11.25C3.65 11.25 3.55 11.23 3.46 11.19C3.37 11.15 3.29 11.1 3.21 11.03C3.14 10.96 3.09 10.87 3.05 10.78C3.01 10.69 3 10.59 3 10.5C3 10.4 3.01 10.3 3.05 10.21C3.09 10.12 3.14 10.04 3.21 9.96C3.29 9.89 3.37 9.84 3.46 9.8C3.55 9.76 3.65 9.75 3.75 9.75L4.5 9.75C4.59 9.75 4.69 9.76 4.78 9.8C4.87 9.84 4.95 9.89 5.03 9.96C5.1 10.04 5.15 10.12 5.19 10.21C5.23 10.3 5.25 10.4 5.25 10.5ZM14.25 10.5C14.25 10.59 14.23 10.69 14.19 10.78C14.15 10.87 14.1 10.96 14.03 11.03C13.96 11.1 13.87 11.15 13.78 11.19C13.69 11.23 13.59 11.25 13.5 11.25L7.5 11.25C7.4 11.25 7.3 11.23 7.21 11.19C7.12 11.15 7.04 11.1 6.96 11.03C6.89 10.96 6.84 10.87 6.8 10.78C6.76 10.69 6.75 10.59 6.75 10.5C6.75 10.4 6.76 10.3 6.8 10.21C6.84 10.12 6.89 10.04 6.96 9.96C7.04 9.89 7.12 9.84 7.21 9.8C7.3 9.76 7.4 9.75 7.5 9.75L13.5 9.75C13.59 9.75 13.69 9.76 13.78 9.8C13.87 9.84 13.96 9.89 14.03 9.96C14.1 10.04 14.15 10.12 14.19 10.21C14.23 10.3 14.25 10.4 14.25 10.5ZM18 10.5C18 10.59 17.98 10.69 17.94 10.78C17.9 10.87 17.85 10.96 17.78 11.03C17.7 11.1 17.62 11.15 17.53 11.19C17.44 11.23 17.34 11.25 17.25 11.25L16.5 11.25C16.4 11.25 16.3 11.23 16.21 11.19C16.12 11.15 16.04 11.1 15.96 11.03C15.89 10.96 15.84 10.87 15.8 10.78C15.76 10.69 15.75 10.59 15.75 10.5C15.75 10.4 15.76 10.3 15.8 10.21C15.84 10.12 15.89 10.04 15.96 9.96C16.04 9.89 16.12 9.84 16.21 9.8C16.3 9.76 16.4 9.75 16.5 9.75L17.25 9.75C17.34 9.75 17.44 9.76 17.53 9.8C17.62 9.84 17.7 9.89 17.78 9.96C17.85 10.04 17.9 10.12 17.94 10.21C17.98 10.3 18 10.4 18 10.5Z" fill="#000000" fill-opacity="1.000000" fill-rule="nonzero"/>
</svg>
