<svg width="18.000000" height="18.000000" viewBox="0 0 18 18" fill="none" xmlns="http://www.w3.org/2000/svg" xmlns:xlink="http://www.w3.org/1999/xlink">
	<desc>
			Created with Pixso.
	</desc>
	<defs/>
	<path id="path" d="M18 9C18 9.09 17.98 9.19 17.94 9.28C17.9 9.37 17.85 9.45 17.78 9.53C17.7 9.6 17.62 9.65 17.53 9.69C17.44 9.73 17.34 9.75 17.25 9.75L9.75 9.75L9.75 17.25C9.75 17.34 9.73 17.44 9.69 17.53C9.65 17.62 9.6 17.7 9.53 17.78C9.45 17.85 9.37 17.9 9.28 17.94C9.19 17.98 9.09 18 9 18C8.9 18 8.8 17.98 8.71 17.94C8.62 17.9 8.54 17.85 8.46 17.78C8.39 17.7 8.34 17.62 8.3 17.53C8.26 17.44 8.25 17.34 8.25 17.25L8.25 9.75L0.75 9.75C0.65 9.75 0.55 9.73 0.46 9.69C0.37 9.65 0.29 9.6 0.21 9.53C0.14 9.45 0.09 9.37 0.05 9.28C0.01 9.19 0 9.09 0 9C0 8.9 0.01 8.8 0.05 8.71C0.09 8.62 0.14 8.54 0.21 8.46C0.29 8.39 0.37 8.34 0.46 8.3C0.55 8.26 0.65 8.25 0.75 8.25L8.25 8.25L8.25 0.75C8.25 0.65 8.26 0.55 8.3 0.46C8.34 0.37 8.39 0.29 8.46 0.21C8.54 0.14 8.62 0.09 8.71 0.05C8.8 0.01 8.9 0 9 0C9.09 0 9.19 0.01 9.28 0.05C9.37 0.09 9.45 0.14 9.53 0.21C9.6 0.29 9.65 0.37 9.69 0.46C9.73 0.55 9.75 0.65 9.75 0.75L9.75 8.25L17.25 8.25C17.34 8.25 17.44 8.26 17.53 8.3C17.62 8.34 17.7 8.39 17.78 8.46C17.85 8.54 17.9 8.62 17.94 8.71C17.98 8.8 18 8.9 18 9Z" fill="#000000" fill-opacity="1.000000" fill-rule="nonzero"/>
</svg>
