<svg width="18.000000" height="18.000000" viewBox="0 0 18 18" fill="none" xmlns="http://www.w3.org/2000/svg" xmlns:xlink="http://www.w3.org/1999/xlink">
	<desc>
			Created with Pixso.
	</desc>
	<defs/>
	<path id="path" d="M5.25 6C5.25 5.9 5.26 5.8 5.3 5.71C5.34 5.62 5.39 5.54 5.46 5.46C5.54 5.39 5.62 5.34 5.71 5.3C5.8 5.26 5.9 5.25 6 5.25L12 5.25C12.09 5.25 12.19 5.26 12.28 5.3C12.37 5.34 12.46 5.39 12.53 5.46C12.6 5.54 12.65 5.62 12.69 5.71C12.73 5.8 12.75 5.9 12.75 6C12.75 6.09 12.73 6.19 12.69 6.28C12.65 6.37 12.6 6.45 12.53 6.53C12.46 6.6 12.37 6.65 12.28 6.69C12.19 6.73 12.09 6.75 12 6.75L6 6.75C5.9 6.75 5.8 6.73 5.71 6.69C5.62 6.65 5.54 6.6 5.46 6.53C5.39 6.45 5.34 6.37 5.3 6.28C5.26 6.19 5.25 6.09 5.25 6ZM6 9.75L12 9.75C12.09 9.75 12.19 9.73 12.28 9.69C12.37 9.65 12.46 9.6 12.53 9.53C12.6 9.45 12.65 9.37 12.69 9.28C12.73 9.19 12.75 9.09 12.75 9C12.75 8.9 12.73 8.8 12.69 8.71C12.65 8.62 12.6 8.54 12.53 8.46C12.46 8.39 12.37 8.34 12.28 8.3C12.19 8.26 12.09 8.25 12 8.25L6 8.25C5.9 8.25 5.8 8.26 5.71 8.3C5.62 8.34 5.54 8.39 5.46 8.46C5.39 8.54 5.34 8.62 5.3 8.71C5.26 8.8 5.25 8.9 5.25 9C5.25 9.09 5.26 9.19 5.3 9.28C5.34 9.37 5.39 9.45 5.46 9.53C5.54 9.6 5.62 9.65 5.71 9.69C5.8 9.73 5.9 9.75 6 9.75ZM9 11.25L6 11.25C5.9 11.25 5.8 11.26 5.71 11.3C5.62 11.34 5.54 11.39 5.46 11.46C5.39 11.54 5.34 11.62 5.3 11.71C5.26 11.8 5.25 11.9 5.25 12C5.25 12.09 5.26 12.19 5.3 12.28C5.34 12.37 5.39 12.46 5.46 12.53C5.54 12.6 5.62 12.65 5.71 12.69C5.8 12.73 5.9 12.75 6 12.75L9 12.75C9.09 12.75 9.19 12.73 9.28 12.69C9.37 12.65 9.45 12.6 9.53 12.53C9.6 12.46 9.65 12.37 9.69 12.28C9.73 12.19 9.75 12.09 9.75 12C9.75 11.9 9.73 11.8 9.69 11.71C9.65 11.62 9.6 11.54 9.53 11.46C9.45 11.39 9.37 11.34 9.28 11.3C9.19 11.26 9.09 11.25 9 11.25ZM18 1.5L18 11.68C18 12.1 17.85 12.45 17.56 12.75L12.75 17.56C12.45 17.85 12.1 18 11.68 18L1.5 18C1.3 18 1.1 17.96 0.92 17.88C0.74 17.8 0.58 17.7 0.43 17.56C0.29 17.41 0.19 17.25 0.11 17.07C0.03 16.89 0 16.69 0 16.5L0 1.5C0 1.3 0.03 1.1 0.11 0.92C0.19 0.74 0.29 0.58 0.43 0.43C0.58 0.29 0.74 0.19 0.92 0.11C1.1 0.03 1.3 0 1.5 0L16.5 0C16.69 0 16.89 0.03 17.07 0.11C17.25 0.19 17.41 0.29 17.56 0.43C17.7 0.58 17.8 0.74 17.88 0.92C17.96 1.1 18 1.3 18 1.5ZM1.5 16.5L11.25 16.5L11.25 12C11.25 11.9 11.26 11.8 11.3 11.71C11.34 11.62 11.39 11.54 11.46 11.46C11.54 11.39 11.62 11.34 11.71 11.3C11.8 11.26 11.9 11.25 12 11.25L16.5 11.25L16.5 1.5L1.5 1.5L1.5 16.5ZM12.75 12.75L12.75 15.44L15.43 12.75L12.75 12.75Z" fill="#000000" fill-opacity="1.000000" fill-rule="nonzero"/>
</svg>
