<svg width="24.000000" height="24.000000" viewBox="0 0 24 24" fill="none" xmlns="http://www.w3.org/2000/svg" xmlns:xlink="http://www.w3.org/1999/xlink">
	<desc>
			Created with Pixso.
	</desc>
	<defs>
		<clipPath id="clip2_730">
			<rect id="Question" width="24.000000" height="24.000000" fill="white" fill-opacity="0"/>
		</clipPath>
	</defs>
	<g clip-path="url(#clip2_730)">
		<path id="path" d="M13.12 16.87C13.12 17.02 13.09 17.16 13.03 17.3C12.98 17.44 12.9 17.56 12.79 17.67C12.68 17.77 12.56 17.85 12.43 17.91C12.29 17.97 12.14 18 12 18C11.85 18 11.7 17.97 11.56 17.91C11.43 17.85 11.31 17.77 11.2 17.67C11.09 17.56 11.01 17.44 10.96 17.3C10.9 17.16 10.87 17.02 10.87 16.87C10.87 16.72 10.9 16.58 10.96 16.44C11.01 16.3 11.09 16.18 11.2 16.07C11.31 15.97 11.43 15.89 11.56 15.83C11.7 15.77 11.85 15.75 12 15.75C12.14 15.75 12.29 15.77 12.43 15.83C12.56 15.89 12.68 15.97 12.79 16.07C12.9 16.18 12.98 16.3 13.03 16.44C13.09 16.58 13.12 16.72 13.12 16.87ZM12 6.75C9.93 6.75 8.25 8.26 8.25 10.12L8.25 10.5C8.25 10.59 8.26 10.69 8.3 10.78C8.34 10.87 8.39 10.96 8.46 11.03C8.54 11.1 8.62 11.15 8.71 11.19C8.8 11.23 8.9 11.25 9 11.25C9.09 11.25 9.19 11.23 9.28 11.19C9.37 11.15 9.45 11.1 9.53 11.03C9.6 10.96 9.65 10.87 9.69 10.78C9.73 10.69 9.75 10.59 9.75 10.5L9.75 10.12C9.75 9.09 10.75 8.25 12 8.25C13.24 8.25 14.25 9.09 14.25 10.12C14.25 11.15 13.24 12 12 12C11.9 12 11.8 12.01 11.71 12.05C11.62 12.09 11.54 12.14 11.46 12.21C11.39 12.29 11.34 12.37 11.3 12.46C11.26 12.55 11.25 12.65 11.25 12.75L11.25 13.5C11.25 13.59 11.26 13.69 11.3 13.78C11.34 13.87 11.39 13.96 11.46 14.03C11.54 14.1 11.62 14.15 11.71 14.19C11.8 14.23 11.9 14.25 12 14.25C12.09 14.25 12.19 14.23 12.28 14.19C12.37 14.15 12.46 14.1 12.53 14.03C12.6 13.96 12.65 13.87 12.69 13.78C12.73 13.69 12.75 13.59 12.75 13.5L12.75 13.43C14.46 13.11 15.75 11.75 15.75 10.12C15.75 8.26 14.06 6.75 12 6.75ZM21.75 12C21.75 12.31 21.73 12.63 21.7 12.95C21.67 13.27 21.62 13.58 21.56 13.9C21.5 14.21 21.42 14.52 21.33 14.83C21.23 15.13 21.12 15.43 21 15.73C20.88 16.02 20.74 16.31 20.59 16.59C20.44 16.87 20.28 17.15 20.1 17.41C19.92 17.68 19.73 17.93 19.53 18.18C19.33 18.43 19.12 18.66 18.89 18.89C18.66 19.12 18.43 19.33 18.18 19.53C17.93 19.73 17.68 19.92 17.41 20.1C17.15 20.28 16.87 20.44 16.59 20.59C16.31 20.74 16.02 20.88 15.73 21C15.43 21.12 15.13 21.23 14.83 21.33C14.52 21.42 14.21 21.5 13.9 21.56C13.58 21.62 13.27 21.67 12.95 21.7C12.63 21.73 12.31 21.75 12 21.75C11.68 21.75 11.36 21.73 11.04 21.7C10.72 21.67 10.41 21.62 10.09 21.56C9.78 21.5 9.47 21.42 9.16 21.33C8.86 21.23 8.56 21.12 8.26 21C7.97 20.88 7.68 20.74 7.4 20.59C7.12 20.44 6.84 20.28 6.58 20.1C6.31 19.92 6.06 19.73 5.81 19.53C5.56 19.33 5.33 19.12 5.1 18.89C4.87 18.66 4.66 18.43 4.46 18.18C4.26 17.93 4.07 17.68 3.89 17.41C3.71 17.15 3.55 16.87 3.4 16.59C3.25 16.31 3.11 16.02 2.99 15.73C2.87 15.43 2.76 15.13 2.66 14.83C2.57 14.52 2.49 14.21 2.43 13.9C2.37 13.58 2.32 13.27 2.29 12.95C2.26 12.63 2.25 12.31 2.25 12C2.25 11.68 2.26 11.36 2.29 11.04C2.32 10.72 2.37 10.41 2.43 10.09C2.49 9.78 2.57 9.47 2.66 9.16C2.76 8.86 2.87 8.56 2.99 8.26C3.11 7.97 3.25 7.68 3.4 7.4C3.55 7.12 3.71 6.84 3.89 6.58C4.07 6.31 4.26 6.06 4.46 5.81C4.66 5.56 4.87 5.33 5.1 5.1C5.33 4.87 5.56 4.66 5.81 4.46C6.06 4.26 6.31 4.07 6.58 3.89C6.84 3.71 7.12 3.55 7.4 3.4C7.68 3.25 7.97 3.11 8.26 2.99C8.56 2.87 8.86 2.76 9.16 2.66C9.47 2.57 9.78 2.49 10.09 2.43C10.41 2.37 10.72 2.32 11.04 2.29C11.36 2.26 11.68 2.25 12 2.25C12.31 2.25 12.63 2.26 12.95 2.29C13.27 2.32 13.58 2.37 13.9 2.43C14.21 2.5 14.52 2.57 14.82 2.67C15.13 2.76 15.43 2.87 15.72 2.99C16.02 3.11 16.31 3.25 16.59 3.4C16.87 3.55 17.14 3.71 17.41 3.89C17.67 4.07 17.93 4.26 18.18 4.46C18.42 4.66 18.66 4.88 18.89 5.1C19.11 5.33 19.33 5.57 19.53 5.81C19.73 6.06 19.92 6.32 20.1 6.58C20.28 6.85 20.44 7.12 20.59 7.4C20.74 7.68 20.88 7.97 21 8.27C21.12 8.56 21.23 8.86 21.32 9.17C21.42 9.47 21.49 9.78 21.56 10.09C21.62 10.41 21.67 10.72 21.7 11.04C21.73 11.36 21.74 11.68 21.75 12ZM20.25 12C20.25 11.73 20.23 11.46 20.21 11.19C20.18 10.92 20.14 10.65 20.09 10.39C20.03 10.12 19.97 9.86 19.89 9.6C19.81 9.34 19.72 9.09 19.62 8.84C19.51 8.59 19.4 8.34 19.27 8.11C19.14 7.87 19 7.64 18.85 7.41C18.7 7.19 18.54 6.97 18.37 6.76C18.2 6.55 18.02 6.35 17.83 6.16C17.64 5.97 17.44 5.79 17.23 5.62C17.02 5.45 16.8 5.29 16.58 5.14C16.35 4.99 16.12 4.85 15.88 4.72C15.65 4.59 15.4 4.48 15.15 4.37C14.9 4.27 14.65 4.18 14.39 4.1C14.13 4.02 13.87 3.96 13.6 3.9C13.34 3.85 13.07 3.81 12.8 3.78C12.53 3.76 12.27 3.75 12 3.75C11.73 3.75 11.46 3.76 11.19 3.78C10.92 3.81 10.65 3.85 10.39 3.9C10.12 3.96 9.86 4.02 9.6 4.1C9.34 4.18 9.09 4.27 8.84 4.37C8.59 4.48 8.34 4.59 8.11 4.72C7.87 4.85 7.64 4.99 7.41 5.14C7.19 5.29 6.97 5.45 6.76 5.62C6.55 5.79 6.35 5.97 6.16 6.16C5.97 6.35 5.79 6.55 5.62 6.76C5.45 6.97 5.29 7.19 5.14 7.41C4.99 7.64 4.85 7.87 4.72 8.11C4.59 8.34 4.48 8.59 4.37 8.84C4.27 9.09 4.18 9.34 4.1 9.6C4.02 9.86 3.96 10.12 3.9 10.39C3.85 10.65 3.81 10.92 3.78 11.19C3.76 11.46 3.75 11.73 3.75 12C3.75 12.27 3.76 12.53 3.78 12.8C3.81 13.07 3.85 13.34 3.9 13.6C3.96 13.87 4.02 14.13 4.1 14.39C4.18 14.65 4.27 14.9 4.37 15.15C4.48 15.4 4.59 15.65 4.72 15.88C4.85 16.12 4.99 16.35 5.14 16.58C5.29 16.8 5.45 17.02 5.62 17.23C5.79 17.44 5.97 17.64 6.16 17.83C6.35 18.02 6.55 18.2 6.76 18.37C6.97 18.54 7.19 18.7 7.41 18.85C7.64 19 7.87 19.14 8.11 19.27C8.34 19.4 8.59 19.51 8.84 19.62C9.09 19.72 9.34 19.81 9.6 19.89C9.86 19.97 10.12 20.03 10.39 20.09C10.65 20.14 10.92 20.18 11.19 20.21C11.46 20.23 11.73 20.25 12 20.25C12.27 20.24 12.53 20.23 12.8 20.2C13.07 20.18 13.34 20.14 13.6 20.08C13.87 20.03 14.13 19.97 14.39 19.89C14.65 19.81 14.9 19.72 15.15 19.61C15.4 19.51 15.64 19.4 15.88 19.27C16.12 19.14 16.35 19 16.58 18.85C16.8 18.7 17.02 18.54 17.23 18.37C17.43 18.2 17.63 18.02 17.83 17.83C18.02 17.63 18.2 17.43 18.37 17.23C18.54 17.02 18.7 16.8 18.85 16.58C19 16.35 19.14 16.12 19.27 15.88C19.4 15.64 19.51 15.4 19.61 15.15C19.72 14.9 19.81 14.65 19.89 14.39C19.97 14.13 20.03 13.87 20.08 13.6C20.14 13.34 20.18 13.07 20.2 12.8C20.23 12.53 20.24 12.27 20.25 12Z" fill="#000000" fill-opacity="1.000000" fill-rule="nonzero"/>
	</g>
</svg>
