<svg width="19.500000" height="19.500000" viewBox="0 0 19.5 19.5" fill="none" xmlns="http://www.w3.org/2000/svg" xmlns:xlink="http://www.w3.org/1999/xlink">
	<desc>
			Created with Pixso.
	</desc>
	<defs/>
	<path id="path" d="M9.75 0C9.43 0 9.11 0.01 8.79 0.04C8.47 0.07 8.16 0.12 7.84 0.18C7.53 0.24 7.22 0.32 6.91 0.41C6.61 0.51 6.31 0.62 6.01 0.74C5.72 0.86 5.43 1 5.15 1.15C4.87 1.3 4.59 1.46 4.33 1.64C4.06 1.82 3.81 2.01 3.56 2.21C3.31 2.41 3.08 2.62 2.85 2.85C2.62 3.08 2.41 3.31 2.21 3.56C2.01 3.81 1.82 4.06 1.64 4.33C1.46 4.59 1.3 4.87 1.15 5.15C1 5.43 0.86 5.72 0.74 6.01C0.62 6.31 0.51 6.61 0.41 6.91C0.32 7.22 0.25 7.53 0.18 7.84C0.12 8.16 0.07 8.47 0.04 8.79C0.01 9.11 0 9.43 0 9.75C0 10.06 0.01 10.38 0.04 10.7C0.07 11.02 0.12 11.33 0.18 11.65C0.25 11.96 0.32 12.27 0.41 12.58C0.51 12.88 0.62 13.18 0.74 13.48C0.86 13.77 1 14.06 1.15 14.34C1.3 14.62 1.46 14.9 1.64 15.16C1.82 15.43 2.01 15.68 2.21 15.93C2.41 16.18 2.62 16.41 2.85 16.64C3.08 16.87 3.31 17.08 3.56 17.28C3.81 17.48 4.06 17.67 4.33 17.85C4.59 18.03 4.87 18.19 5.15 18.34C5.43 18.49 5.72 18.63 6.01 18.75C6.31 18.87 6.61 18.98 6.91 19.08C7.22 19.17 7.53 19.25 7.84 19.31C8.16 19.37 8.47 19.42 8.79 19.45C9.11 19.48 9.43 19.5 9.75 19.5C10.06 19.5 10.38 19.48 10.7 19.45C11.02 19.42 11.33 19.37 11.65 19.31C11.96 19.25 12.27 19.17 12.58 19.08C12.88 18.98 13.18 18.87 13.48 18.75C13.77 18.63 14.06 18.49 14.34 18.34C14.62 18.19 14.9 18.03 15.16 17.85C15.43 17.67 15.68 17.48 15.93 17.28C16.18 17.08 16.41 16.87 16.64 16.64C16.87 16.41 17.08 16.18 17.28 15.93C17.48 15.68 17.67 15.43 17.85 15.16C18.03 14.9 18.19 14.62 18.34 14.34C18.49 14.06 18.63 13.77 18.75 13.48C18.87 13.18 18.98 12.88 19.08 12.58C19.17 12.27 19.25 11.96 19.31 11.65C19.37 11.33 19.42 11.02 19.45 10.7C19.48 10.38 19.5 10.06 19.5 9.75C19.5 9.43 19.48 9.11 19.45 8.79C19.42 8.47 19.37 8.16 19.31 7.84C19.24 7.53 19.17 7.22 19.07 6.92C18.98 6.61 18.87 6.31 18.75 6.02C18.63 5.72 18.49 5.43 18.34 5.15C18.19 4.87 18.03 4.6 17.85 4.33C17.67 4.07 17.48 3.81 17.28 3.56C17.08 3.32 16.86 3.08 16.64 2.85C16.41 2.63 16.17 2.41 15.93 2.21C15.68 2.01 15.42 1.82 15.16 1.64C14.89 1.46 14.62 1.3 14.34 1.15C14.06 1 13.77 0.86 13.47 0.74C13.18 0.62 12.88 0.51 12.57 0.42C12.27 0.32 11.96 0.25 11.65 0.18C11.33 0.12 11.02 0.07 10.7 0.04C10.38 0.01 10.06 0 9.75 0ZM9.75 18C9.47 18 9.2 17.98 8.94 17.96C8.67 17.93 8.4 17.89 8.14 17.84C7.87 17.78 7.61 17.72 7.35 17.64C7.09 17.56 6.84 17.47 6.59 17.37C6.34 17.26 6.09 17.15 5.86 17.02C5.62 16.89 5.39 16.75 5.16 16.6C4.94 16.45 4.72 16.29 4.51 16.12C4.3 15.95 4.1 15.77 3.91 15.58C3.72 15.39 3.54 15.19 3.37 14.98C3.2 14.77 3.04 14.55 2.89 14.33C2.74 14.1 2.6 13.87 2.47 13.63C2.34 13.4 2.23 13.15 2.12 12.9C2.02 12.65 1.93 12.4 1.85 12.14C1.77 11.88 1.71 11.62 1.65 11.35C1.6 11.09 1.56 10.82 1.54 10.55C1.51 10.28 1.5 10.02 1.5 9.75C1.5 9.47 1.51 9.21 1.54 8.94C1.56 8.67 1.6 8.4 1.65 8.14C1.71 7.87 1.77 7.61 1.85 7.35C1.93 7.09 2.02 6.84 2.12 6.59C2.23 6.34 2.34 6.09 2.47 5.86C2.6 5.62 2.74 5.39 2.89 5.16C3.04 4.94 3.2 4.72 3.37 4.51C3.54 4.3 3.72 4.1 3.91 3.91C4.1 3.72 4.3 3.54 4.51 3.37C4.72 3.2 4.94 3.04 5.16 2.89C5.39 2.74 5.62 2.6 5.86 2.47C6.09 2.34 6.34 2.23 6.59 2.12C6.84 2.02 7.09 1.93 7.35 1.85C7.61 1.77 7.87 1.71 8.14 1.65C8.4 1.6 8.67 1.56 8.94 1.53C9.2 1.51 9.47 1.5 9.75 1.5C10.02 1.5 10.29 1.51 10.55 1.53C10.82 1.56 11.09 1.6 11.35 1.65C11.62 1.71 11.88 1.77 12.14 1.85C12.4 1.93 12.65 2.02 12.9 2.12C13.15 2.23 13.4 2.34 13.63 2.47C13.87 2.6 14.1 2.74 14.33 2.89C14.55 3.04 14.77 3.2 14.98 3.37C15.19 3.54 15.39 3.72 15.58 3.91C15.77 4.1 15.95 4.3 16.12 4.51C16.29 4.72 16.45 4.94 16.6 5.16C16.75 5.39 16.89 5.62 17.02 5.86C17.15 6.09 17.26 6.34 17.37 6.59C17.47 6.84 17.56 7.09 17.64 7.35C17.72 7.61 17.78 7.87 17.84 8.14C17.89 8.4 17.93 8.67 17.95 8.94C17.98 9.21 18 9.47 18 9.75C18 10.02 17.98 10.28 17.95 10.55C17.93 10.82 17.89 11.09 17.83 11.35C17.78 11.62 17.72 11.88 17.64 12.14C17.56 12.4 17.47 12.65 17.36 12.9C17.26 13.15 17.15 13.39 17.02 13.63C16.89 13.87 16.75 14.1 16.6 14.33C16.45 14.55 16.29 14.77 16.12 14.98C15.95 15.18 15.77 15.38 15.58 15.58C15.38 15.77 15.19 15.95 14.98 16.12C14.77 16.29 14.55 16.45 14.33 16.6C14.1 16.75 13.87 16.89 13.63 17.02C13.39 17.15 13.15 17.26 12.9 17.36C12.65 17.47 12.4 17.56 12.14 17.64C11.88 17.72 11.62 17.78 11.35 17.83C11.09 17.89 10.82 17.93 10.55 17.95C10.29 17.98 10.02 17.99 9.75 18ZM11.25 14.25C11.25 14.34 11.23 14.44 11.19 14.53C11.15 14.62 11.1 14.71 11.03 14.78C10.96 14.85 10.87 14.9 10.78 14.94C10.69 14.98 10.59 15 10.5 15C10.3 15 10.1 14.96 9.92 14.88C9.74 14.8 9.58 14.7 9.43 14.56C9.29 14.41 9.19 14.25 9.11 14.07C9.03 13.89 9 13.69 9 13.5L9 9.75C8.9 9.75 8.8 9.73 8.71 9.69C8.62 9.65 8.54 9.6 8.46 9.53C8.39 9.45 8.34 9.37 8.3 9.28C8.26 9.19 8.25 9.09 8.25 9C8.25 8.9 8.26 8.8 8.3 8.71C8.34 8.62 8.39 8.54 8.46 8.46C8.54 8.39 8.62 8.34 8.71 8.3C8.8 8.26 8.9 8.25 9 8.25C9.19 8.25 9.39 8.28 9.57 8.36C9.75 8.44 9.91 8.54 10.06 8.68C10.2 8.83 10.3 8.99 10.38 9.17C10.46 9.35 10.5 9.55 10.5 9.75L10.5 13.5C10.59 13.5 10.69 13.51 10.78 13.55C10.87 13.59 10.96 13.64 11.03 13.71C11.1 13.79 11.15 13.87 11.19 13.96C11.23 14.05 11.25 14.15 11.25 14.25ZM8.25 5.62C8.25 5.47 8.27 5.33 8.33 5.19C8.39 5.05 8.47 4.93 8.57 4.82C8.68 4.72 8.8 4.64 8.94 4.58C9.08 4.52 9.22 4.5 9.37 4.5C9.52 4.5 9.66 4.52 9.8 4.58C9.94 4.64 10.06 4.72 10.17 4.82C10.27 4.93 10.35 5.05 10.41 5.19C10.47 5.33 10.5 5.47 10.5 5.62C10.5 5.77 10.47 5.91 10.41 6.05C10.35 6.19 10.27 6.31 10.17 6.42C10.06 6.52 9.94 6.6 9.8 6.66C9.66 6.72 9.52 6.75 9.37 6.75C9.22 6.75 9.08 6.72 8.94 6.66C8.8 6.6 8.68 6.52 8.57 6.42C8.47 6.31 8.39 6.19 8.33 6.05C8.27 5.91 8.25 5.77 8.25 5.62Z" fill="#FF0000" fill-opacity="1.000000" fill-rule="nonzero"/>
</svg>
