<svg width="21.779297" height="16.514648" viewBox="0 0 21.7793 16.5146" fill="none" xmlns="http://www.w3.org/2000/svg" xmlns:xlink="http://www.w3.org/1999/xlink">
	<desc>
			Created with Pixso.
	</desc>
	<defs/>
	<path id="path" d="M12 11.78C12.19 11.66 12.38 11.53 12.56 11.39C12.74 11.25 12.91 11.1 13.08 10.94C13.24 10.78 13.4 10.61 13.54 10.43C13.69 10.25 13.83 10.07 13.95 9.88C14.08 9.69 14.19 9.49 14.3 9.29C14.4 9.08 14.5 8.87 14.58 8.66C14.66 8.45 14.73 8.23 14.79 8.01C14.85 7.79 14.9 7.56 14.93 7.34C14.96 7.11 14.99 6.88 15 6.65C15.01 6.43 15.01 6.2 14.99 5.97C14.98 5.74 14.95 5.51 14.91 5.29C14.87 5.06 14.82 4.84 14.76 4.62C14.7 4.4 14.62 4.18 14.54 3.97C14.45 3.76 14.35 3.55 14.24 3.35C14.13 3.15 14.01 2.95 13.88 2.76C13.76 2.57 13.62 2.39 13.47 2.22C13.32 2.04 13.16 1.88 12.99 1.72C12.83 1.57 12.65 1.42 12.47 1.28C12.29 1.14 12.09 1.01 11.9 0.9C11.7 0.78 11.5 0.67 11.29 0.58C11.08 0.48 10.87 0.4 10.65 0.32C10.44 0.25 10.22 0.19 9.99 0.14C9.77 0.09 9.54 0.06 9.31 0.03C9.09 0.01 8.86 0 8.63 0C8.4 0 8.17 0.01 7.94 0.03C7.72 0.06 7.49 0.09 7.27 0.14C7.04 0.19 6.82 0.25 6.61 0.32C6.39 0.4 6.18 0.48 5.97 0.58C5.76 0.67 5.56 0.78 5.36 0.9C5.16 1.01 4.97 1.14 4.79 1.28C4.61 1.42 4.43 1.57 4.27 1.72C4.1 1.88 3.94 2.04 3.79 2.22C3.64 2.39 3.5 2.57 3.37 2.76C3.24 2.95 3.12 3.15 3.02 3.35C2.91 3.55 2.81 3.76 2.72 3.97C2.64 4.18 2.56 4.4 2.5 4.62C2.44 4.84 2.39 5.06 2.35 5.29C2.31 5.51 2.28 5.74 2.27 5.97C2.25 6.2 2.25 6.43 2.26 6.65C2.27 6.88 2.29 7.11 2.33 7.34C2.36 7.56 2.41 7.79 2.47 8.01C2.53 8.23 2.6 8.45 2.68 8.66C2.76 8.87 2.86 9.08 2.96 9.29C3.07 9.49 3.18 9.69 3.31 9.88C3.43 10.07 3.57 10.25 3.72 10.43C3.86 10.61 4.02 10.78 4.18 10.94C4.34 11.1 4.52 11.25 4.7 11.39C4.88 11.53 5.06 11.66 5.26 11.78C3.32 12.41 1.58 13.6 0.18 15.27C0.11 15.34 0.07 15.43 0.03 15.52C0 15.62 -0.01 15.72 0 15.82C0 15.92 0.03 16.01 0.08 16.1C0.12 16.19 0.19 16.27 0.26 16.33C0.34 16.4 0.43 16.45 0.52 16.48C0.62 16.51 0.72 16.52 0.82 16.51C0.92 16.5 1.01 16.47 1.1 16.42C1.19 16.37 1.26 16.31 1.33 16.23C3.21 13.99 5.8 12.75 8.62 12.75C11.45 12.75 14.04 13.99 15.92 16.23C15.99 16.31 16.07 16.37 16.15 16.41C16.24 16.46 16.33 16.49 16.43 16.5C16.53 16.5 16.63 16.49 16.73 16.46C16.82 16.43 16.91 16.39 16.98 16.32C17.06 16.26 17.12 16.18 17.16 16.09C17.21 16.01 17.24 15.91 17.25 15.81C17.26 15.71 17.25 15.62 17.21 15.52C17.19 15.43 17.14 15.34 17.07 15.27C15.67 13.6 13.93 12.41 12 11.78ZM3.75 6.37C3.75 6.05 3.78 5.74 3.84 5.42C3.91 5.11 4 4.8 4.12 4.51C4.24 4.21 4.39 3.93 4.57 3.67C4.75 3.4 4.95 3.15 5.18 2.93C5.4 2.7 5.65 2.5 5.92 2.32C6.18 2.14 6.46 1.99 6.76 1.87C7.05 1.75 7.36 1.65 7.67 1.59C7.99 1.53 8.3 1.5 8.62 1.5C8.94 1.5 9.26 1.53 9.58 1.59C9.89 1.65 10.19 1.75 10.49 1.87C10.79 1.99 11.07 2.14 11.33 2.32C11.6 2.5 11.85 2.7 12.07 2.93C12.3 3.15 12.5 3.4 12.68 3.67C12.86 3.93 13.01 4.21 13.13 4.51C13.25 4.8 13.34 5.11 13.41 5.42C13.47 5.74 13.5 6.05 13.5 6.37C13.5 6.69 13.47 7.01 13.41 7.32C13.34 7.64 13.25 7.94 13.13 8.24C13.01 8.54 12.86 8.82 12.68 9.08C12.5 9.35 12.3 9.59 12.07 9.82C11.85 10.05 11.6 10.25 11.33 10.43C11.07 10.6 10.79 10.76 10.49 10.88C10.19 11 9.89 11.09 9.58 11.16C9.26 11.22 8.94 11.25 8.62 11.25C8.3 11.25 7.99 11.22 7.67 11.15C7.36 11.09 7.06 11 6.76 10.88C6.46 10.75 6.18 10.6 5.92 10.43C5.65 10.25 5.41 10.05 5.18 9.82C4.95 9.59 4.75 9.35 4.57 9.08C4.4 8.81 4.25 8.53 4.12 8.24C4 7.94 3.91 7.64 3.84 7.32C3.78 7.01 3.75 6.69 3.75 6.37ZM21.4 10.41L20.96 10.16C21.01 9.89 21.01 9.61 20.96 9.34L21.4 9.09C21.48 9.04 21.56 8.97 21.62 8.89C21.68 8.81 21.72 8.73 21.75 8.63C21.77 8.53 21.78 8.44 21.77 8.34C21.75 8.24 21.72 8.15 21.67 8.06C21.62 7.97 21.56 7.9 21.48 7.84C21.4 7.78 21.31 7.74 21.22 7.71C21.12 7.69 21.02 7.68 20.92 7.69C20.83 7.71 20.73 7.74 20.65 7.79L20.21 8.04C20 7.86 19.76 7.72 19.5 7.63L19.5 7.12C19.5 7.02 19.48 6.93 19.44 6.84C19.4 6.75 19.35 6.66 19.28 6.59C19.21 6.52 19.13 6.47 19.04 6.43C18.94 6.39 18.85 6.37 18.75 6.37C18.65 6.37 18.55 6.39 18.46 6.43C18.37 6.47 18.29 6.52 18.22 6.59C18.15 6.66 18.09 6.75 18.06 6.84C18.02 6.93 18 7.02 18 7.12L18 7.63C17.74 7.72 17.5 7.86 17.29 8.04L16.85 7.79C16.76 7.74 16.67 7.71 16.57 7.69C16.48 7.68 16.38 7.69 16.28 7.71C16.19 7.74 16.1 7.78 16.02 7.84C15.94 7.9 15.88 7.97 15.83 8.06C15.78 8.15 15.75 8.24 15.73 8.34C15.72 8.44 15.73 8.53 15.75 8.63C15.78 8.73 15.82 8.81 15.88 8.89C15.94 8.97 16.01 9.04 16.1 9.09L16.54 9.34C16.49 9.61 16.49 9.89 16.54 10.16L16.1 10.41C16.01 10.46 15.94 10.53 15.88 10.6C15.82 10.68 15.78 10.77 15.75 10.87C15.73 10.96 15.72 11.06 15.73 11.16C15.75 11.26 15.78 11.35 15.83 11.44C15.88 11.52 15.94 11.6 16.02 11.66C16.1 11.72 16.19 11.76 16.28 11.79C16.38 11.81 16.48 11.82 16.57 11.81C16.67 11.79 16.76 11.76 16.85 11.71L17.29 11.46C17.5 11.64 17.74 11.78 18 11.87L18 12.37C18 12.47 18.02 12.57 18.06 12.66C18.09 12.75 18.15 12.83 18.22 12.9C18.29 12.97 18.37 13.03 18.46 13.07C18.55 13.1 18.65 13.12 18.75 13.12C18.85 13.12 18.94 13.1 19.04 13.07C19.13 13.03 19.21 12.97 19.28 12.9C19.35 12.83 19.4 12.75 19.44 12.66C19.48 12.57 19.5 12.47 19.5 12.37L19.5 11.87C19.76 11.78 20 11.64 20.21 11.46L20.65 11.71C20.76 11.78 20.89 11.81 21.02 11.81C21.19 11.81 21.34 11.76 21.48 11.66C21.61 11.55 21.7 11.42 21.75 11.26C21.79 11.09 21.78 10.93 21.72 10.77C21.65 10.62 21.54 10.5 21.4 10.41ZM18 9.75C18 9.65 18.02 9.55 18.06 9.46C18.09 9.37 18.15 9.29 18.22 9.22C18.29 9.15 18.37 9.09 18.46 9.06C18.55 9.02 18.65 9 18.75 9C18.85 9 18.94 9.02 19.04 9.06C19.13 9.09 19.21 9.15 19.28 9.22C19.35 9.29 19.4 9.37 19.44 9.46C19.48 9.55 19.5 9.65 19.5 9.75C19.5 9.85 19.48 9.94 19.44 10.04C19.4 10.13 19.35 10.21 19.28 10.28C19.21 10.35 19.13 10.4 19.04 10.44C18.94 10.48 18.85 10.5 18.75 10.5C18.65 10.5 18.55 10.48 18.46 10.44C18.37 10.4 18.29 10.35 18.22 10.28C18.15 10.21 18.09 10.13 18.06 10.04C18.02 9.94 18 9.85 18 9.75Z" fill="#000000" fill-opacity="1.000000" fill-rule="nonzero"/>
</svg>
