<svg width="19.500000" height="18.750000" viewBox="0 0 19.5 18.75" fill="none" xmlns="http://www.w3.org/2000/svg" xmlns:xlink="http://www.w3.org/1999/xlink">
	<desc>
			Created with Pixso.
	</desc>
	<defs/>
	<path id="path" d="M18 4.5L14.25 4.5C14.25 4.2 14.22 3.91 14.16 3.62C14.1 3.33 14.02 3.05 13.9 2.77C13.79 2.5 13.65 2.24 13.49 2C13.32 1.75 13.14 1.52 12.93 1.31C12.72 1.1 12.49 0.92 12.25 0.75C12 0.59 11.74 0.45 11.47 0.34C11.19 0.22 10.91 0.14 10.62 0.08C10.33 0.02 10.04 0 9.75 0C9.45 0 9.16 0.02 8.87 0.08C8.58 0.14 8.3 0.22 8.02 0.34C7.75 0.45 7.49 0.59 7.25 0.75C7 0.92 6.77 1.1 6.56 1.31C6.35 1.52 6.17 1.75 6 2C5.84 2.24 5.7 2.5 5.59 2.77C5.47 3.05 5.39 3.33 5.33 3.62C5.27 3.91 5.25 4.2 5.25 4.5L1.5 4.5C1.3 4.5 1.1 4.53 0.92 4.61C0.74 4.69 0.58 4.79 0.43 4.93C0.29 5.08 0.18 5.24 0.11 5.42C0.03 5.6 0 5.8 0 6L0 17.25C0 17.44 0.03 17.64 0.11 17.82C0.18 18 0.29 18.16 0.43 18.31C0.58 18.45 0.74 18.55 0.92 18.63C1.1 18.71 1.3 18.75 1.5 18.75L18 18.75C18.19 18.75 18.39 18.71 18.57 18.63C18.75 18.55 18.91 18.45 19.06 18.31C19.2 18.16 19.31 18 19.38 17.82C19.46 17.64 19.5 17.44 19.5 17.25L19.5 6C19.5 5.8 19.46 5.6 19.38 5.42C19.31 5.24 19.2 5.08 19.06 4.93C18.91 4.79 18.75 4.69 18.57 4.61C18.39 4.53 18.19 4.5 18 4.5ZM9.75 1.5C9.94 1.5 10.14 1.51 10.33 1.55C10.52 1.59 10.71 1.65 10.89 1.72C11.08 1.8 11.25 1.89 11.41 2C11.58 2.11 11.73 2.23 11.87 2.37C12 2.51 12.13 2.66 12.24 2.83C12.35 2.99 12.44 3.16 12.52 3.35C12.59 3.53 12.65 3.72 12.69 3.91C12.73 4.1 12.75 4.3 12.75 4.5L6.75 4.5C6.75 4.3 6.76 4.1 6.8 3.91C6.84 3.72 6.9 3.53 6.97 3.35C7.05 3.16 7.14 2.99 7.25 2.83C7.36 2.66 7.49 2.51 7.62 2.37C7.76 2.23 7.91 2.11 8.08 2C8.24 1.89 8.41 1.8 8.6 1.72C8.78 1.65 8.97 1.59 9.16 1.55C9.35 1.51 9.55 1.5 9.75 1.5ZM18 17.25L1.5 17.25L1.5 6L5.25 6L5.25 7.5C5.25 7.59 5.26 7.69 5.3 7.78C5.34 7.87 5.39 7.95 5.46 8.03C5.53 8.1 5.62 8.15 5.71 8.19C5.8 8.23 5.9 8.25 6 8.25C6.09 8.25 6.19 8.23 6.28 8.19C6.37 8.15 6.46 8.1 6.53 8.03C6.6 7.95 6.65 7.87 6.69 7.78C6.73 7.69 6.75 7.59 6.75 7.5L6.75 6L12.75 6L12.75 7.5C12.75 7.59 12.76 7.69 12.8 7.78C12.84 7.87 12.89 7.95 12.96 8.03C13.03 8.1 13.12 8.15 13.21 8.19C13.3 8.23 13.4 8.25 13.5 8.25C13.59 8.25 13.69 8.23 13.78 8.19C13.87 8.15 13.96 8.1 14.03 8.03C14.1 7.95 14.15 7.87 14.19 7.78C14.23 7.69 14.25 7.59 14.25 7.5L14.25 6L18 6L18 17.25Z" fill="#000000" fill-opacity="1.000000" fill-rule="nonzero"/>
</svg>
