<svg width="21.004883" height="20.247559" viewBox="0 0 21.0049 20.2476" fill="none" xmlns="http://www.w3.org/2000/svg" xmlns:xlink="http://www.w3.org/1999/xlink">
	<desc>
			Created with Pixso.
	</desc>
	<defs/>
	<path id="path" d="M20.92 7.62C20.88 7.48 20.81 7.35 20.73 7.22C20.65 7.1 20.55 7 20.43 6.91C20.32 6.81 20.19 6.74 20.06 6.69C19.92 6.63 19.78 6.6 19.63 6.58L14.06 6.1L11.88 0.91C11.82 0.78 11.75 0.65 11.65 0.54C11.56 0.43 11.45 0.33 11.33 0.25C11.21 0.16 11.07 0.1 10.93 0.06C10.79 0.02 10.65 0 10.5 0C10.35 0 10.21 0.02 10.07 0.06C9.93 0.1 9.79 0.16 9.67 0.25C9.55 0.33 9.44 0.43 9.35 0.54C9.25 0.65 9.18 0.78 9.12 0.91L6.94 6.1L1.37 6.59C1.22 6.6 1.08 6.63 0.94 6.69C0.81 6.74 0.68 6.81 0.56 6.91C0.45 7 0.35 7.1 0.26 7.23C0.18 7.35 0.11 7.48 0.07 7.62C0.02 7.76 0 7.9 0 8.05C-0.01 8.2 0.01 8.34 0.05 8.49C0.09 8.63 0.15 8.76 0.23 8.89C0.31 9.01 0.4 9.12 0.52 9.22L4.74 12.91L3.48 18.4C3.44 18.55 3.43 18.69 3.44 18.84C3.45 18.98 3.48 19.13 3.53 19.27C3.58 19.4 3.65 19.53 3.74 19.65C3.83 19.77 3.94 19.87 4.06 19.96C4.17 20.04 4.3 20.11 4.44 20.16C4.58 20.21 4.73 20.23 4.87 20.24C5.02 20.25 5.17 20.23 5.31 20.2C5.45 20.16 5.59 20.1 5.71 20.03L10.49 17.12L15.28 20.03C15.41 20.1 15.55 20.16 15.69 20.2C15.83 20.23 15.98 20.25 16.12 20.24C16.27 20.23 16.41 20.21 16.55 20.16C16.69 20.11 16.82 20.04 16.94 19.96C17.06 19.87 17.16 19.77 17.25 19.65C17.34 19.53 17.41 19.4 17.46 19.27C17.52 19.13 17.55 18.98 17.56 18.84C17.57 18.69 17.55 18.55 17.52 18.4L16.25 12.91L20.48 9.22C20.59 9.12 20.69 9.01 20.77 8.89C20.85 8.76 20.91 8.63 20.95 8.48C20.98 8.34 21 8.2 21 8.05C21 7.9 20.97 7.76 20.92 7.62ZM19.5 8.08L15.27 11.77C15.06 11.96 14.91 12.18 14.83 12.44C14.74 12.71 14.73 12.98 14.79 13.25L16.06 18.75L11.28 15.84C11.04 15.69 10.78 15.62 10.5 15.62C10.22 15.62 9.96 15.69 9.73 15.84L4.94 18.75L6.21 13.25C6.27 12.98 6.26 12.71 6.17 12.45C6.09 12.18 5.94 11.96 5.73 11.78L1.5 8.09L7.07 7.6C7.35 7.58 7.6 7.48 7.83 7.32C8.05 7.15 8.22 6.94 8.32 6.69L10.5 1.5L12.67 6.69C12.78 6.94 12.95 7.15 13.17 7.32C13.4 7.48 13.65 7.58 13.93 7.6L19.5 8.08Z" fill="#000000" fill-opacity="1.000000" fill-rule="nonzero"/>
</svg>
