<svg width="21.000977" height="18.750244" viewBox="0 0 21.001 18.7502" fill="none" xmlns="http://www.w3.org/2000/svg" xmlns:xlink="http://www.w3.org/1999/xlink">
	<desc>
			Created with Pixso.
	</desc>
	<defs/>
	<path id="path" d="M20.7 0.2C20.58 0.1 20.45 0.03 20.29 0.01C20.14 -0.02 19.99 0 19.84 0.05L0.84 7.49C0.71 7.54 0.59 7.61 0.48 7.71C0.37 7.8 0.27 7.91 0.2 8.03C0.12 8.15 0.06 8.28 0.03 8.42C0 8.56 -0.01 8.71 0 8.85C0.01 8.99 0.05 9.13 0.11 9.26C0.16 9.4 0.24 9.52 0.34 9.62C0.43 9.73 0.55 9.82 0.67 9.89C0.8 9.96 0.93 10.01 1.07 10.04L6 11.01L6 16.5C6 16.64 6.02 16.79 6.06 16.93C6.1 17.08 6.17 17.21 6.25 17.33C6.33 17.46 6.43 17.57 6.55 17.66C6.67 17.76 6.79 17.83 6.93 17.89C7.07 17.94 7.22 17.98 7.36 17.99C7.51 18 7.66 17.99 7.81 17.96C7.95 17.93 8.09 17.88 8.22 17.81C8.35 17.73 8.47 17.64 8.58 17.54L10.95 15.07L14.71 18.37C15 18.62 15.32 18.74 15.7 18.75C15.86 18.75 16.02 18.72 16.17 18.67C16.42 18.59 16.64 18.45 16.81 18.26C16.99 18.06 17.11 17.84 17.17 17.58L20.97 1.03C21.01 0.87 21 0.72 20.95 0.58C20.9 0.43 20.82 0.3 20.7 0.2ZM14.97 3.58L6.57 9.59L1.92 8.68L14.97 3.58ZM7.5 16.5L7.5 12.04L9.82 14.08L7.5 16.5ZM15.7 17.25L7.95 10.45L19.11 2.45L15.7 17.25Z" fill="#000000" fill-opacity="1.000000" fill-rule="nonzero"/>
</svg>
