<svg width="18.750000" height="18.000000" viewBox="0 0 18.75 18" fill="none" xmlns="http://www.w3.org/2000/svg" xmlns:xlink="http://www.w3.org/1999/xlink">
	<desc>
			Created with Pixso.
	</desc>
	<defs/>
	<path id="path" d="M9.75 4.49L9.75 8.57L13.13 10.6C13.22 10.65 13.29 10.71 13.35 10.79C13.41 10.87 13.45 10.96 13.47 11.06C13.5 11.16 13.5 11.25 13.49 11.35C13.47 11.45 13.44 11.54 13.39 11.63C13.34 11.71 13.27 11.78 13.19 11.84C13.11 11.9 13.02 11.94 12.93 11.97C12.83 11.99 12.73 12 12.64 11.98C12.54 11.97 12.44 11.93 12.36 11.88L8.61 9.63C8.5 9.57 8.41 9.47 8.34 9.36C8.28 9.25 8.25 9.12 8.25 8.99L8.25 4.49C8.25 4.39 8.26 4.3 8.3 4.2C8.34 4.11 8.4 4.03 8.47 3.96C8.54 3.89 8.62 3.84 8.71 3.8C8.8 3.76 8.9 3.74 9 3.74C9.09 3.74 9.19 3.76 9.28 3.8C9.37 3.84 9.46 3.89 9.53 3.96C9.6 4.03 9.65 4.11 9.69 4.2C9.73 4.3 9.75 4.39 9.75 4.49ZM18 2.24C17.9 2.24 17.8 2.26 17.71 2.3C17.62 2.34 17.54 2.39 17.47 2.46C17.4 2.53 17.34 2.61 17.3 2.7C17.26 2.8 17.25 2.89 17.25 2.99L17.25 4.68C16.65 3.99 16.04 3.32 15.36 2.63C15.15 2.42 14.94 2.23 14.71 2.04C14.48 1.86 14.25 1.68 14 1.52C13.76 1.35 13.51 1.2 13.25 1.07C13 0.93 12.73 0.8 12.46 0.69C12.19 0.58 11.91 0.48 11.63 0.39C11.35 0.3 11.07 0.23 10.78 0.17C10.5 0.12 10.21 0.07 9.91 0.04C9.62 0.01 9.33 0 9.04 0C8.75 -0.01 8.45 0.01 8.16 0.03C7.87 0.06 7.58 0.1 7.29 0.16C7 0.21 6.72 0.28 6.44 0.37C6.16 0.45 5.88 0.55 5.61 0.66C5.34 0.77 5.08 0.89 4.82 1.02C4.56 1.16 4.3 1.31 4.06 1.47C3.81 1.63 3.58 1.8 3.35 1.99C3.12 2.17 2.9 2.36 2.69 2.57C2.48 2.77 2.29 2.99 2.1 3.21C1.91 3.44 1.73 3.67 1.57 3.91C1.4 4.16 1.25 4.4 1.11 4.66C0.97 4.92 0.84 5.18 0.72 5.45C0.61 5.72 0.5 5.99 0.42 6.27C0.33 6.55 0.25 6.84 0.19 7.12C0.13 7.41 0.08 7.7 0.05 7.99C0.02 8.28 0 8.57 0 8.86C-0.01 9.16 0 9.45 0.03 9.74C0.05 10.03 0.09 10.32 0.14 10.61C0.19 10.9 0.26 11.18 0.34 11.47C0.42 11.75 0.51 12.03 0.62 12.3C0.73 12.57 0.85 12.84 0.99 13.1C1.12 13.36 1.26 13.61 1.42 13.86C1.58 14.1 1.75 14.34 1.93 14.57C2.11 14.8 2.31 15.02 2.51 15.23C2.71 15.45 2.92 15.65 3.15 15.84C3.37 16.03 3.6 16.21 3.84 16.37C4.08 16.54 4.33 16.7 4.58 16.84C4.84 16.98 5.1 17.12 5.37 17.23C5.64 17.35 5.91 17.46 6.19 17.55C6.47 17.64 6.75 17.72 7.04 17.78C7.32 17.84 7.61 17.89 7.9 17.93C8.19 17.96 8.49 17.99 8.78 17.99C9.07 18 9.36 17.99 9.66 17.97C9.95 17.95 10.24 17.91 10.53 17.86C10.82 17.81 11.1 17.75 11.38 17.67C11.66 17.59 11.94 17.5 12.22 17.4C12.49 17.29 12.76 17.18 13.02 17.04C13.28 16.91 13.54 16.77 13.79 16.61C14.03 16.46 14.27 16.29 14.5 16.11C14.74 15.93 14.96 15.74 15.17 15.54C15.25 15.47 15.3 15.39 15.34 15.3C15.38 15.21 15.4 15.12 15.41 15.02C15.41 14.92 15.39 14.82 15.36 14.73C15.32 14.63 15.27 14.55 15.2 14.48C15.13 14.41 15.05 14.35 14.96 14.31C14.87 14.27 14.78 14.25 14.68 14.25C14.58 14.24 14.48 14.26 14.39 14.29C14.3 14.33 14.21 14.38 14.14 14.45C13.96 14.62 13.78 14.78 13.58 14.92C13.39 15.07 13.19 15.21 12.99 15.34C12.78 15.47 12.57 15.59 12.35 15.7C12.13 15.81 11.91 15.91 11.68 16C11.45 16.08 11.22 16.16 10.98 16.22C10.75 16.29 10.51 16.34 10.27 16.38C10.03 16.42 9.79 16.45 9.54 16.47C9.3 16.49 9.06 16.5 8.81 16.49C8.57 16.48 8.33 16.47 8.08 16.44C7.84 16.41 7.6 16.36 7.36 16.31C7.12 16.26 6.89 16.19 6.66 16.12C6.42 16.04 6.2 15.95 5.98 15.86C5.75 15.76 5.53 15.65 5.32 15.53C5.11 15.41 4.9 15.28 4.7 15.14C4.5 15 4.31 14.85 4.12 14.69C3.94 14.53 3.76 14.37 3.59 14.19C3.42 14.01 3.26 13.83 3.11 13.64C2.96 13.45 2.82 13.25 2.69 13.04C2.55 12.84 2.43 12.63 2.32 12.41C2.21 12.19 2.11 11.97 2.02 11.74C1.93 11.52 1.85 11.29 1.79 11.05C1.72 10.82 1.66 10.58 1.62 10.34C1.58 10.1 1.54 9.86 1.52 9.61C1.5 9.37 1.49 9.13 1.5 8.88C1.5 8.64 1.52 8.4 1.54 8.15C1.57 7.91 1.61 7.67 1.66 7.43C1.71 7.19 1.77 6.96 1.85 6.72C1.92 6.49 2.01 6.26 2.1 6.04C2.2 5.81 2.31 5.6 2.42 5.38C2.54 5.17 2.67 4.96 2.81 4.76C2.94 4.56 3.09 4.36 3.25 4.18C3.4 3.99 3.57 3.81 3.74 3.64C3.92 3.47 4.1 3.31 4.29 3.15C4.48 3 4.68 2.86 4.88 2.72C5.08 2.59 5.3 2.46 5.51 2.35C5.73 2.24 5.95 2.13 6.17 2.04C6.4 1.95 6.63 1.87 6.86 1.8C7.1 1.73 7.33 1.67 7.58 1.63C7.82 1.58 8.06 1.55 8.3 1.52C8.54 1.5 8.79 1.49 9.03 1.49C9.27 1.49 9.52 1.51 9.76 1.53C10 1.56 10.24 1.59 10.48 1.64C10.72 1.69 10.96 1.75 11.19 1.82C11.42 1.89 11.65 1.97 11.88 2.07C12.1 2.16 12.33 2.27 12.54 2.38C12.75 2.5 12.96 2.62 13.17 2.76C13.37 2.89 13.57 3.04 13.75 3.19C13.94 3.35 14.12 3.51 14.3 3.68C15.06 4.46 15.73 5.2 16.4 5.99L14.25 5.99C14.15 5.99 14.05 6.01 13.96 6.05C13.87 6.09 13.79 6.14 13.72 6.21C13.65 6.28 13.59 6.36 13.55 6.45C13.51 6.55 13.5 6.64 13.5 6.74C13.5 6.84 13.51 6.94 13.55 7.03C13.59 7.12 13.65 7.2 13.72 7.27C13.79 7.34 13.87 7.4 13.96 7.43C14.05 7.47 14.15 7.49 14.25 7.49L18 7.49C18.09 7.49 18.19 7.47 18.28 7.43C18.37 7.4 18.46 7.34 18.53 7.27C18.6 7.2 18.65 7.12 18.69 7.03C18.73 6.94 18.75 6.84 18.75 6.74L18.75 2.99C18.75 2.89 18.73 2.8 18.69 2.7C18.65 2.61 18.6 2.53 18.53 2.46C18.46 2.39 18.37 2.34 18.28 2.3C18.19 2.26 18.09 2.24 18 2.24Z" fill="#000000" fill-opacity="1.000000" fill-rule="nonzero"/>
</svg>
